{
.appVersion = "895";
DisplayStrings = (
s
);
copyright = "SIL OPEN FONT LICENSE Version 1.1";
date = "2017-02-18 05:44:20 +0000";
designer = "Trevor Bullock";
familyName = "KA Old Style Martyria";
fontMaster = (
{
ascender = 800;
capHeight = 700;
descender = -200;
id = "47BBACC6-E520-4FE6-B315-B44B96E25748";
xHeight = 500;
}
);
glyphs = (
{
glyphname = O;
lastChange = "2019-04-16 17:18:00 +0000";
layers = (
{
components = (
{
name = _part.apostrophoi;
transform = "{1, 0, 0, 1, 175, -226}";
}
);
layerId = "47BBACC6-E520-4FE6-B315-B44B96E25748";
paths = (
{
closed = 1;
nodes = (
"608 -52 OFFCURVE",
"598 -47 OFFCURVE",
"592 -43 CURVE",
"575 -34 OFFCURVE",
"575 -28 OFFCURVE",
"592 -10 CURVE",
"605 5 OFFCURVE",
"615 19 OFFCURVE",
"615 22 CURVE SMOOTH",
"615 30 OFFCURVE",
"547 15 OFFCURVE",
"431 -19 CURVE SMOOTH",
"323 -51 OFFCURVE",
"327 -50 OFFCURVE",
"280 -52 CURVE SMOOTH",
"229 -54 OFFCURVE",
"210 -50 OFFCURVE",
"188 -33 CURVE",
"170 -18 OFFCURVE",
"164 -10 OFFCURVE",
"161 7 CURVE SMOOTH",
"158 22 OFFCURVE",
"158 25 OFFCURVE",
"161 36 CURVE",
"169 56 OFFCURVE",
"175 67 OFFCURVE",
"190 81 CURVE SMOOTH",
"205 96 OFFCURVE",
"225 104 OFFCURVE",
"250 108 CURVE SMOOTH",
"264 110 OFFCURVE",
"267 110 OFFCURVE",
"275 105 CURVE",
"281 103 OFFCURVE",
"288 98 OFFCURVE",
"291 93 CURVE",
"297 81 OFFCURVE",
"294 76 OFFCURVE",
"273 44 CURVE",
"247 10 OFFCURVE",
"248 7 OFFCURVE",
"286 7 CURVE SMOOTH",
"310 7 OFFCURVE",
"317 7 OFFCURVE",
"371 19 CURVE",
"401 29 OFFCURVE",
"449 41 OFFCURVE",
"475 48 CURVE SMOOTH",
"530 64 OFFCURVE",
"567 73 OFFCURVE",
"608 74 CURVE SMOOTH",
"634 75 OFFCURVE",
"639 75 OFFCURVE",
"651 70 CURVE",
"672 64 OFFCURVE",
"695 45 OFFCURVE",
"700 33 CURVE SMOOTH",
"706 19 OFFCURVE",
"702 -4 OFFCURVE",
"695 -16 CURVE",
"676 -45 OFFCURVE",
"639 -62 OFFCURVE",
"615 -54 CURVE"
);
}
);
width = 863;
}
);
unicode = 004F;
},
{
glyphname = a;
lastChange = "2019-03-07 00:26:12 +0000";
layers = (
{
layerId = "47BBACC6-E520-4FE6-B315-B44B96E25748";
paths = (
{
closed = 1;
nodes = (
"456 -287 OFFCURVE",
"448 -283 OFFCURVE",
"443 -280 CURVE",
"429 -272 OFFCURVE",
"429 -267 OFFCURVE",
"443 -252 CURVE",
"454 -240 OFFCURVE",
"462 -228 OFFCURVE",
"462 -226 CURVE",
"462 -219 OFFCURVE",
"406 -232 OFFCURVE",
"310 -260 CURVE",
"221 -286 OFFCURVE",
"224 -285 OFFCURVE",
"185 -287 CURVE",
"143 -289 OFFCURVE",
"127 -285 OFFCURVE",
"109 -271 CURVE",
"94 -259 OFFCURVE",
"89 -252 OFFCURVE",
"87 -238 CURVE",
"84 -226 OFFCURVE",
"84 -223 OFFCURVE",
"87 -214 CURVE",
"93 -198 OFFCURVE",
"98 -189 OFFCURVE",
"111 -177 CURVE",
"123 -165 OFFCURVE",
"140 -158 OFFCURVE",
"160 -155 CURVE",
"172 -153 OFFCURVE",
"174 -153 OFFCURVE",
"181 -157 CURVE",
"186 -159 OFFCURVE",
"192 -163 OFFCURVE",
"194 -167 CURVE",
"199 -177 OFFCURVE",
"197 -181 OFFCURVE",
"179 -208 CURVE",
"158 -236 OFFCURVE",
"159 -238 OFFCURVE",
"190 -238 CURVE",
"210 -238 OFFCURVE",
"216 -238 OFFCURVE",
"260 -228 CURVE",
"285 -220 OFFCURVE",
"325 -210 OFFCURVE",
"346 -204 CURVE",
"392 -191 OFFCURVE",
"422 -184 OFFCURVE",
"456 -183 CURVE",
"478 -182 OFFCURVE",
"482 -182 OFFCURVE",
"492 -186 CURVE",
"509 -191 OFFCURVE",
"528 -207 OFFCURVE",
"532 -217 CURVE",
"537 -228 OFFCURVE",
"534 -247 OFFCURVE",
"528 -257 CURVE",
"512 -281 OFFCURVE",
"482 -295 OFFCURVE",
"462 -289 CURVE"
);
}
);
width = 675;
}
);
unicode = 0061;
},
{
glyphname = b;
lastChange = "2019-03-07 00:26:12 +0000";
layers = (
{
layerId = "47BBACC6-E520-4FE6-B315-B44B96E25748";
paths = (
{
closed = 1;
nodes = (
"301 -247 OFFCURVE",
"300 -245 OFFCURVE",
"300 -242 CURVE",
"300 -239 OFFCURVE",
"322 -178 OFFCURVE",
"349 -107 CURVE",
"397 24 LINE",
"390 37 LINE",
"379 58 OFFCURVE",
"353 96 OFFCURVE",
"342 108 CURVE",
"329 121 OFFCURVE",
"318 128 OFFCURVE",
"308 130 CURVE",
"300 131 OFFCURVE",
"298 135 OFFCURVE",
"298 148 CURVE",
"298 162 OFFCURVE",
"301 170 OFFCURVE",
"311 179 CURVE",
"319 188 OFFCURVE",
"334 194 OFFCURVE",
"346 195 CURVE",
"353 196 LINE",
"386 155 LINE",
"416 120 OFFCURVE",
"421 115 OFFCURVE",
"426 115 CURVE",
"431 114 OFFCURVE",
"432 115 OFFCURVE",
"437 126 CURVE",
"440 133 OFFCURVE",
"449 152 OFFCURVE",
"457 168 CURVE",
"472 198 OFFCURVE",
"485 218 OFFCURVE",
"492 222 CURVE",
"494 223 OFFCURVE",
"501 223 OFFCURVE",
"509 223 CURVE",
"523 222 LINE",
"525 215 LINE",
"528 208 LINE",
"506 179 LINE",
"487 153 OFFCURVE",
"483 147 OFFCURVE",
"473 124 CURVE",
"459 93 OFFCURVE",
"457 86 OFFCURVE",
"458 68 CURVE",
"458 56 OFFCURVE",
"460 52 OFFCURVE",
"468 35 CURVE",
"473 24 OFFCURVE",
"481 8 OFFCURVE",
"486 0 CURVE",
"495 -17 OFFCURVE",
"522 -81 OFFCURVE",
"534 -118 CURVE",
"546 -154 OFFCURVE",
"551 -172 OFFCURVE",
"552 -190 CURVE",
"553 -210 OFFCURVE",
"551 -215 OFFCURVE",
"537 -223 CURVE",
"526 -230 OFFCURVE",
"516 -231 OFFCURVE",
"513 -226 CURVE",
"512 -224 OFFCURVE",
"500 -194 OFFCURVE",
"487 -159 CURVE",
"467 -107 OFFCURVE",
"459 -89 OFFCURVE",
"442 -55 CURVE",
"430 -33 OFFCURVE",
"420 -14 OFFCURVE",
"419 -14 CURVE",
"419 -14 OFFCURVE",
"400 -65 OFFCURVE",
"379 -128 CURVE",
"340 -243 LINE",
"328 -244 LINE",
"321 -244 OFFCURVE",
"313 -246 OFFCURVE",
"310 -247 CURVE",
"304 -249 OFFCURVE",
"303 -250 OFFCURVE",
"301 -248 CURVE"
);
},
{
closed = 1;
nodes = (
"305 241 OFFCURVE",
"298 245 OFFCURVE",
"295 248 CURVE",
"290 253 LINE",
"294 309 LINE",
"297 340 OFFCURVE",
"299 367 OFFCURVE",
"299 369 CURVE",
"299 372 OFFCURVE",
"296 372 OFFCURVE",
"255 372 CURVE",
"230 372 OFFCURVE",
"203 371 OFFCURVE",
"194 370 CURVE",
"145 365 OFFCURVE",
"133 366 OFFCURVE",
"124 375 CURVE",
"120 379 OFFCURVE",
"119 380 OFFCURVE",
"120 391 CURVE",
"122 404 OFFCURVE",
"125 412 OFFCURVE",
"133 417 CURVE",
"137 421 OFFCURVE",
"140 421 OFFCURVE",
"153 420 CURVE",
"182 419 OFFCURVE",
"274 419 OFFCURVE",
"330 421 CURVE",
"386 423 LINE",
"389 418 LINE",
"394 412 OFFCURVE",
"393 400 OFFCURVE",
"386 387 CURVE",
"379 370 OFFCURVE",
"374 347 OFFCURVE",
"372 311 CURVE",
"370 267 OFFCURVE",
"365 254 OFFCURVE",
"345 240 CURVE",
"334 233 OFFCURVE",
"328 233 OFFCURVE",
"312 239 CURVE"
);
},
{
closed = 1;
nodes = (
"474 233 OFFCURVE",
"468 233 OFFCURVE",
"457 240 CURVE",
"437 254 OFFCURVE",
"432 267 OFFCURVE",
"430 311 CURVE",
"428 347 OFFCURVE",
"423 370 OFFCURVE",
"416 387 CURVE",
"409 400 OFFCURVE",
"408 412 OFFCURVE",
"413 418 CURVE",
"416 423 LINE",
"472 421 LINE",
"528 419 OFFCURVE",
"620 419 OFFCURVE",
"649 420 CURVE",
"662 421 OFFCURVE",
"665 421 OFFCURVE",
"669 417 CURVE",
"677 412 OFFCURVE",
"680 404 OFFCURVE",
"682 391 CURVE",
"683 380 OFFCURVE",
"682 379 OFFCURVE",
"678 375 CURVE",
"669 366 OFFCURVE",
"657 365 OFFCURVE",
"608 370 CURVE",
"599 371 OFFCURVE",
"572 372 OFFCURVE",
"547 372 CURVE",
"506 372 OFFCURVE",
"503 372 OFFCURVE",
"503 369 CURVE",
"503 367 OFFCURVE",
"505 340 OFFCURVE",
"508 309 CURVE",
"512 253 LINE",
"507 248 LINE",
"504 245 OFFCURVE",
"497 241 OFFCURVE",
"490 239 CURVE"
);
}
);
width = 802;
}
);
unicode = 0062;
},
{
glyphname = c;
lastChange = "2019-03-07 00:26:12 +0000";
layers = (
{
layerId = "47BBACC6-E520-4FE6-B315-B44B96E25748";
paths = (
{
closed = 1;
nodes = (
"222 -247 OFFCURVE",
"221 -245 OFFCURVE",
"221 -242 CURVE",
"221 -239 OFFCURVE",
"243 -178 OFFCURVE",
"270 -107 CURVE",
"318 24 LINE",
"311 37 LINE",
"300 58 OFFCURVE",
"274 96 OFFCURVE",
"263 108 CURVE",
"250 121 OFFCURVE",
"239 128 OFFCURVE",
"229 130 CURVE",
"221 131 OFFCURVE",
"219 135 OFFCURVE",
"219 148 CURVE",
"219 162 OFFCURVE",
"222 170 OFFCURVE",
"232 179 CURVE",
"240 188 OFFCURVE",
"255 194 OFFCURVE",
"267 195 CURVE",
"274 196 LINE",
"307 155 LINE",
"337 120 OFFCURVE",
"342 115 OFFCURVE",
"347 115 CURVE",
"352 114 OFFCURVE",
"353 115 OFFCURVE",
"358 126 CURVE",
"361 133 OFFCURVE",
"370 152 OFFCURVE",
"378 168 CURVE",
"393 198 OFFCURVE",
"406 218 OFFCURVE",
"413 222 CURVE",
"415 223 OFFCURVE",
"422 223 OFFCURVE",
"430 223 CURVE",
"444 222 LINE",
"446 215 LINE",
"449 208 LINE",
"427 179 LINE",
"408 153 OFFCURVE",
"404 147 OFFCURVE",
"394 124 CURVE",
"380 93 OFFCURVE",
"378 86 OFFCURVE",
"379 68 CURVE",
"379 56 OFFCURVE",
"381 52 OFFCURVE",
"389 35 CURVE",
"394 24 OFFCURVE",
"402 8 OFFCURVE",
"407 0 CURVE",
"416 -17 OFFCURVE",
"443 -81 OFFCURVE",
"455 -118 CURVE",
"467 -154 OFFCURVE",
"472 -172 OFFCURVE",
"473 -190 CURVE",
"474 -210 OFFCURVE",
"472 -215 OFFCURVE",
"458 -223 CURVE",
"447 -230 OFFCURVE",
"437 -231 OFFCURVE",
"434 -226 CURVE",
"433 -224 OFFCURVE",
"421 -194 OFFCURVE",
"408 -159 CURVE",
"388 -107 OFFCURVE",
"380 -89 OFFCURVE",
"363 -55 CURVE",
"351 -33 OFFCURVE",
"341 -14 OFFCURVE",
"340 -14 CURVE",
"340 -14 OFFCURVE",
"321 -65 OFFCURVE",
"300 -128 CURVE",
"261 -243 LINE",
"249 -244 LINE",
"242 -244 OFFCURVE",
"234 -246 OFFCURVE",
"231 -247 CURVE",
"225 -249 OFFCURVE",
"224 -250 OFFCURVE",
"222 -248 CURVE"
);
},
{
closed = 1;
nodes = (
"392 419 OFFCURVE",
"391 420 OFFCURVE",
"388 423 CURVE SMOOTH",
"379 432 OFFCURVE",
"367 433 OFFCURVE",
"318 428 CURVE SMOOTH",
"309 427 OFFCURVE",
"282 426 OFFCURVE",
"257 426 CURVE SMOOTH",
"216 426 OFFCURVE",
"213 426 OFFCURVE",
"213 429 CURVE SMOOTH",
"213 431 OFFCURVE",
"215 458 OFFCURVE",
"218 489 CURVE SMOOTH",
"222 545 LINE",
"217 550 LINE SMOOTH",
"214 553 OFFCURVE",
"207 557 OFFCURVE",
"200 559 CURVE",
"184 565 OFFCURVE",
"178 565 OFFCURVE",
"167 558 CURVE",
"147 544 OFFCURVE",
"142 531 OFFCURVE",
"140 487 CURVE SMOOTH",
"138 451 OFFCURVE",
"133 428 OFFCURVE",
"126 411 CURVE",
"120 401 OFFCURVE",
"119 391 OFFCURVE",
"121 385 CURVE",
"121 379 OFFCURVE",
"122 378 OFFCURVE",
"125 375 CURVE SMOOTH",
"134 366 OFFCURVE",
"146 365 OFFCURVE",
"195 370 CURVE SMOOTH",
"204 371 OFFCURVE",
"231 372 OFFCURVE",
"256 372 CURVE SMOOTH",
"297 372 OFFCURVE",
"300 372 OFFCURVE",
"300 369 CURVE SMOOTH",
"300 367 OFFCURVE",
"298 340 OFFCURVE",
"295 309 CURVE SMOOTH",
"291 253 LINE",
"296 248 LINE SMOOTH",
"299 245 OFFCURVE",
"306 241 OFFCURVE",
"313 239 CURVE",
"329 233 OFFCURVE",
"335 233 OFFCURVE",
"346 240 CURVE",
"366 254 OFFCURVE",
"371 267 OFFCURVE",
"373 311 CURVE SMOOTH",
"375 347 OFFCURVE",
"380 370 OFFCURVE",
"387 387 CURVE",
"393 397 OFFCURVE",
"394 407 OFFCURVE",
"392 413 CURVE"
);
}
);
width = 593;
}
);
unicode = 0063;
},
{
glyphname = d;
lastChange = "2019-04-16 17:18:00 +0000";
layers = (
{
components = (
{
name = _part.apostrophoi;
transform = "{0.8, 0, 0, 0.8, 110, -540}";
}
);
layerId = "47BBACC6-E520-4FE6-B315-B44B96E25748";
paths = (
{
closed = 1;
nodes = (
"456 -397 OFFCURVE",
"448 -393 OFFCURVE",
"443 -390 CURVE SMOOTH",
"429 -382 OFFCURVE",
"429 -377 OFFCURVE",
"443 -362 CURVE SMOOTH",
"454 -350 OFFCURVE",
"462 -338 OFFCURVE",
"462 -336 CURVE SMOOTH",
"462 -329 OFFCURVE",
"406 -342 OFFCURVE",
"310 -370 CURVE SMOOTH",
"221 -396 OFFCURVE",
"224 -395 OFFCURVE",
"185 -397 CURVE SMOOTH",
"143 -399 OFFCURVE",
"127 -395 OFFCURVE",
"109 -381 CURVE SMOOTH",
"94 -369 OFFCURVE",
"89 -362 OFFCURVE",
"87 -348 CURVE",
"84 -336 OFFCURVE",
"84 -333 OFFCURVE",
"87 -324 CURVE",
"93 -308 OFFCURVE",
"98 -299 OFFCURVE",
"111 -287 CURVE",
"123 -275 OFFCURVE",
"140 -268 OFFCURVE",
"160 -265 CURVE SMOOTH",
"172 -263 OFFCURVE",
"174 -263 OFFCURVE",
"181 -267 CURVE",
"186 -269 OFFCURVE",
"192 -273 OFFCURVE",
"194 -277 CURVE SMOOTH",
"199 -287 OFFCURVE",
"197 -291 OFFCURVE",
"179 -318 CURVE",
"158 -346 OFFCURVE",
"159 -348 OFFCURVE",
"190 -348 CURVE SMOOTH",
"210 -348 OFFCURVE",
"216 -348 OFFCURVE",
"260 -338 CURVE",
"285 -330 OFFCURVE",
"325 -320 OFFCURVE",
"346 -314 CURVE SMOOTH",
"392 -301 OFFCURVE",
"422 -294 OFFCURVE",
"456 -293 CURVE SMOOTH",
"478 -292 OFFCURVE",
"482 -292 OFFCURVE",
"492 -296 CURVE",
"509 -301 OFFCURVE",
"528 -317 OFFCURVE",
"532 -327 CURVE",
"537 -338 OFFCURVE",
"534 -357 OFFCURVE",
"528 -367 CURVE",
"512 -391 OFFCURVE",
"482 -405 OFFCURVE",
"462 -399 CURVE SMOOTH"
);
}
);
width = 675;
}
);
unicode = 0064;
},
{
glyphname = e;
lastChange = "2019-03-07 00:26:12 +0000";
layers = (
{
layerId = "47BBACC6-E520-4FE6-B315-B44B96E25748";
paths = (
{
closed = 1;
nodes = (
"259 -442 OFFCURVE",
"235 -412 OFFCURVE",
"230 -375 CURVE SMOOTH",
"227 -351 OFFCURVE",
"229 -315 OFFCURVE",
"247 -274 CURVE SMOOTH",
"258 -249 OFFCURVE",
"265 -236 OFFCURVE",
"255 -228 CURVE SMOOTH",
"240 -216 OFFCURVE",
"200 -209 OFFCURVE",
"183 -218 CURVE SMOOTH",
"166 -227 OFFCURVE",
"159 -240 OFFCURVE",
"169 -264 CURVE SMOOTH",
"176 -281 OFFCURVE",
"175 -283 OFFCURVE",
"170 -291 CURVE SMOOTH",
"166 -298 OFFCURVE",
"160 -300 OFFCURVE",
"145 -300 CURVE SMOOTH",
"113 -300 OFFCURVE",
"100 -287 OFFCURVE",
"100 -255 CURVE SMOOTH",
"100 -200 OFFCURVE",
"139 -159 OFFCURVE",
"191 -159 CURVE SMOOTH",
"241 -159 OFFCURVE",
"284 -179 OFFCURVE",
"301 -208 CURVE SMOOTH",
"308 -220 OFFCURVE",
"311 -227 OFFCURVE",
"311 -254 CURVE SMOOTH",
"311 -280 OFFCURVE",
"306 -292 OFFCURVE",
"284 -336 CURVE SMOOTH",
"279 -346 OFFCURVE",
"275 -357 OFFCURVE",
"275 -364 CURVE SMOOTH",
"275 -383 OFFCURVE",
"301 -409 OFFCURVE",
"340 -419 CURVE SMOOTH",
"370 -426 OFFCURVE",
"355 -443 OFFCURVE",
"324 -450 CURVE SMOOTH",
"301 -455 OFFCURVE",
"298 -454 OFFCURVE",
"285 -450 CURVE SMOOTH"
);
},
{
closed = 1;
nodes = (
"524 -442 OFFCURVE",
"500 -412 OFFCURVE",
"495 -375 CURVE SMOOTH",
"492 -351 OFFCURVE",
"494 -315 OFFCURVE",
"512 -274 CURVE SMOOTH",
"523 -249 OFFCURVE",
"530 -236 OFFCURVE",
"520 -228 CURVE SMOOTH",
"505 -216 OFFCURVE",
"465 -209 OFFCURVE",
"448 -218 CURVE SMOOTH",
"431 -227 OFFCURVE",
"424 -240 OFFCURVE",
"434 -264 CURVE SMOOTH",
"441 -281 OFFCURVE",
"440 -283 OFFCURVE",
"435 -291 CURVE SMOOTH",
"431 -298 OFFCURVE",
"425 -300 OFFCURVE",
"410 -300 CURVE SMOOTH",
"378 -300 OFFCURVE",
"365 -287 OFFCURVE",
"365 -255 CURVE SMOOTH",
"365 -200 OFFCURVE",
"404 -159 OFFCURVE",
"456 -159 CURVE SMOOTH",
"506 -159 OFFCURVE",
"549 -179 OFFCURVE",
"566 -208 CURVE SMOOTH",
"573 -220 OFFCURVE",
"576 -227 OFFCURVE",
"576 -254 CURVE SMOOTH",
"576 -280 OFFCURVE",
"571 -292 OFFCURVE",
"549 -336 CURVE SMOOTH",
"544 -346 OFFCURVE",
"540 -357 OFFCURVE",
"540 -364 CURVE SMOOTH",
"540 -383 OFFCURVE",
"566 -409 OFFCURVE",
"605 -419 CURVE SMOOTH",
"635 -427 OFFCURVE",
"620 -443 OFFCURVE",
"589 -450 CURVE SMOOTH",
"566 -455 OFFCURVE",
"563 -454 OFFCURVE",
"550 -450 CURVE SMOOTH"
);
}
);
width = 704;
}
);
unicode = 0065;
},
{
glyphname = f;
lastChange = "2019-03-07 00:26:12 +0000";
layers = (
{
layerId = "47BBACC6-E520-4FE6-B315-B44B96E25748";
paths = (
{
closed = 1;
nodes = (
"69 -428 OFFCURVE",
"65 -421 OFFCURVE",
"65 -415 CURVE",
"65 -408 OFFCURVE",
"88 -385 OFFCURVE",
"118 -361 CURVE",
"145 -340 LINE",
"139 -329 LINE",
"133 -316 OFFCURVE",
"130 -296 OFFCURVE",
"134 -284 CURVE",
"142 -263 OFFCURVE",
"164 -243 OFFCURVE",
"192 -234 CURVE",
"209 -228 OFFCURVE",
"252 -225 OFFCURVE",
"274 -228 CURVE",
"287 -229 OFFCURVE",
"289 -228 OFFCURVE",
"297 -223 CURVE",
"302 -219 OFFCURVE",
"308 -214 OFFCURVE",
"310 -210 CURVE",
"314 -204 LINE",
"293 -190 LINE",
"280 -183 OFFCURVE",
"270 -175 OFFCURVE",
"270 -174 CURVE",
"268 -170 OFFCURVE",
"272 -165 OFFCURVE",
"279 -159 CURVE",
"284 -155 OFFCURVE",
"284 -155 OFFCURVE",
"295 -159 CURVE",
"302 -161 OFFCURVE",
"312 -168 OFFCURVE",
"319 -171 CURVE",
"325 -176 OFFCURVE",
"333 -180 OFFCURVE",
"334 -180 CURVE",
"335 -180 OFFCURVE",
"343 -173 OFFCURVE",
"352 -165 CURVE",
"373 -145 OFFCURVE",
"380 -143 OFFCURVE",
"393 -149 CURVE",
"420 -163 OFFCURVE",
"419 -171 OFFCURVE",
"385 -195 CURVE",
"372 -205 OFFCURVE",
"369 -210 OFFCURVE",
"378 -218 CURVE",
"408 -243 OFFCURVE",
"414 -250 OFFCURVE",
"408 -256 CURVE",
"403 -264 OFFCURVE",
"394 -260 OFFCURVE",
"373 -245 CURVE",
"362 -236 OFFCURVE",
"352 -229 OFFCURVE",
"350 -228 CURVE",
"348 -226 OFFCURVE",
"327 -236 OFFCURVE",
"323 -241 CURVE",
"320 -244 OFFCURVE",
"323 -248 OFFCURVE",
"329 -255 CURVE",
"334 -261 OFFCURVE",
"340 -271 OFFCURVE",
"344 -278 CURVE",
"349 -289 OFFCURVE",
"350 -291 OFFCURVE",
"348 -301 CURVE",
"340 -333 OFFCURVE",
"298 -360 OFFCURVE",
"245 -368 CURVE",
"232 -370 OFFCURVE",
"227 -370 OFFCURVE",
"209 -365 CURVE",
"198 -363 OFFCURVE",
"187 -359 OFFCURVE",
"183 -356 CURVE",
"178 -353 LINE",
"152 -380 LINE",
"113 -421 OFFCURVE",
"90 -444 OFFCURVE",
"88 -444 CURVE",
"85 -444 OFFCURVE",
"82 -440 OFFCURVE",
"78 -436 CURVE"
);
},
{
closed = 1;
nodes = (
"270 -323 OFFCURVE",
"280 -309 OFFCURVE",
"280 -294 CURVE",
"280 -274 OFFCURVE",
"267 -259 OFFCURVE",
"243 -256 CURVE",
"233 -255 OFFCURVE",
"230 -256 OFFCURVE",
"218 -265 CURVE",
"198 -278 OFFCURVE",
"194 -289 OFFCURVE",
"200 -310 CURVE",
"209 -333 OFFCURVE",
"230 -343 OFFCURVE",
"249 -333 CURVE"
);
}
);
width = 607;
}
);
unicode = 0066;
},
{
glyphname = g;
lastChange = "2019-03-07 00:26:12 +0000";
layers = (
{
layerId = "47BBACC6-E520-4FE6-B315-B44B96E25748";
paths = (
{
closed = 1;
nodes = (
"82 -444 OFFCURVE",
"70 -435 OFFCURVE",
"70 -432 CURVE",
"70 -429 OFFCURVE",
"80 -419 OFFCURVE",
"92 -408 CURVE",
"115 -389 LINE",
"101 -380 LINE",
"95 -375 OFFCURVE",
"83 -370 OFFCURVE",
"77 -368 CURVE",
"65 -363 OFFCURVE",
"60 -354 OFFCURVE",
"67 -348 CURVE",
"70 -345 OFFCURVE",
"73 -343 OFFCURVE",
"76 -343 CURVE",
"78 -343 OFFCURVE",
"93 -349 OFFCURVE",
"108 -357 CURVE",
"123 -364 OFFCURVE",
"136 -369 OFFCURVE",
"137 -369 CURVE",
"138 -369 OFFCURVE",
"145 -365 OFFCURVE",
"152 -362 CURVE",
"163 -353 LINE",
"150 -338 LINE",
"126 -315 OFFCURVE",
"122 -303 OFFCURVE",
"131 -284 CURVE",
"136 -272 OFFCURVE",
"156 -254 OFFCURVE",
"175 -244 CURVE",
"195 -233 OFFCURVE",
"227 -223 OFFCURVE",
"246 -220 CURVE",
"261 -218 OFFCURVE",
"293 -219 OFFCURVE",
"298 -223 CURVE",
"300 -224 OFFCURVE",
"312 -214 OFFCURVE",
"331 -195 CURVE",
"366 -162 OFFCURVE",
"395 -137 OFFCURVE",
"401 -137 CURVE",
"406 -137 OFFCURVE",
"427 -157 OFFCURVE",
"430 -163 CURVE",
"431 -170 OFFCURVE",
"422 -179 OFFCURVE",
"382 -209 CURVE",
"363 -224 OFFCURVE",
"346 -237 OFFCURVE",
"345 -238 CURVE",
"343 -239 OFFCURVE",
"348 -245 OFFCURVE",
"355 -254 CURVE",
"363 -267 OFFCURVE",
"366 -270 OFFCURVE",
"366 -279 CURVE",
"366 -305 OFFCURVE",
"351 -324 OFFCURVE",
"322 -338 CURVE",
"287 -355 OFFCURVE",
"261 -360 OFFCURVE",
"215 -360 CURVE",
"200 -360 OFFCURVE",
"200 -360 OFFCURVE",
"187 -372 CURVE",
"181 -379 OFFCURVE",
"176 -384 OFFCURVE",
"176 -385 CURVE",
"176 -387 OFFCURVE",
"183 -389 OFFCURVE",
"193 -393 CURVE",
"220 -402 OFFCURVE",
"232 -408 OFFCURVE",
"233 -413 CURVE",
"235 -419 OFFCURVE",
"221 -430 OFFCURVE",
"212 -430 CURVE",
"207 -430 OFFCURVE",
"196 -427 OFFCURVE",
"186 -422 CURVE",
"155 -408 OFFCURVE",
"158 -408 OFFCURVE",
"143 -424 CURVE",
"128 -440 OFFCURVE",
"115 -450 OFFCURVE",
"107 -450 CURVE",
"105 -450 OFFCURVE",
"98 -449 OFFCURVE",
"93 -447 CURVE"
);
},
{
closed = 1;
nodes = (
"272 -320 OFFCURVE",
"282 -312 OFFCURVE",
"287 -302 CURVE",
"295 -284 OFFCURVE",
"290 -272 OFFCURVE",
"272 -260 CURVE",
"257 -250 OFFCURVE",
"247 -250 OFFCURVE",
"230 -262 CURVE",
"195 -285 OFFCURVE",
"191 -307 OFFCURVE",
"222 -325 CURVE",
"230 -330 OFFCURVE",
"237 -334 OFFCURVE",
"238 -334 CURVE",
"240 -334 OFFCURVE",
"246 -332 OFFCURVE",
"252 -329 CURVE"
);
}
);
width = 623;
}
);
unicode = 0067;
},
{
glyphname = h;
lastChange = "2019-03-07 00:26:12 +0000";
layers = (
{
layerId = "47BBACC6-E520-4FE6-B315-B44B96E25748";
paths = (
{
closed = 1;
nodes = (
"95 -432 OFFCURVE",
"64 -396 OFFCURVE",
"64 -379 CURVE",
"64 -359 OFFCURVE",
"77 -339 OFFCURVE",
"90 -339 CURVE",
"98 -339 OFFCURVE",
"110 -352 OFFCURVE",
"119 -371 CURVE",
"133 -397 OFFCURVE",
"147 -396 OFFCURVE",
"178 -363 CURVE",
"192 -348 OFFCURVE",
"204 -333 OFFCURVE",
"204 -331 CURVE",
"204 -329 OFFCURVE",
"202 -323 OFFCURVE",
"198 -317 CURVE",
"185 -294 OFFCURVE",
"180 -263 OFFCURVE",
"187 -242 CURVE",
"190 -232 OFFCURVE",
"204 -216 OFFCURVE",
"218 -208 CURVE",
"228 -204 OFFCURVE",
"232 -203 OFFCURVE",
"252 -203 CURVE",
"278 -203 OFFCURVE",
"288 -207 OFFCURVE",
"303 -221 CURVE",
"313 -229 LINE",
"355 -186 LINE",
"378 -162 OFFCURVE",
"398 -143 OFFCURVE",
"399 -143 CURVE",
"403 -143 OFFCURVE",
"418 -157 OFFCURVE",
"420 -164 CURVE",
"427 -179 OFFCURVE",
"425 -186 OFFCURVE",
"410 -199 CURVE",
"404 -206 OFFCURVE",
"385 -221 OFFCURVE",
"370 -232 CURVE",
"354 -244 OFFCURVE",
"340 -254 OFFCURVE",
"339 -257 CURVE",
"338 -259 OFFCURVE",
"340 -264 OFFCURVE",
"348 -279 CURVE",
"357 -298 OFFCURVE",
"358 -301 OFFCURVE",
"358 -319 CURVE",
"359 -337 OFFCURVE",
"359 -341 OFFCURVE",
"354 -349 CURVE",
"345 -367 OFFCURVE",
"320 -382 OFFCURVE",
"298 -382 CURVE",
"284 -382 OFFCURVE",
"255 -376 OFFCURVE",
"242 -371 CURVE",
"230 -366 LINE",
"227 -371 LINE",
"210 -396 OFFCURVE",
"183 -421 OFFCURVE",
"157 -434 CURVE",
"138 -443 OFFCURVE",
"129 -444 OFFCURVE",
"117 -439 CURVE"
);
},
{
closed = 1;
nodes = (
"294 -314 OFFCURVE",
"300 -299 OFFCURVE",
"300 -281 CURVE",
"300 -263 OFFCURVE",
"298 -261 OFFCURVE",
"278 -261 CURVE",
"262 -261 OFFCURVE",
"255 -264 OFFCURVE",
"248 -279 CURVE",
"240 -297 OFFCURVE",
"240 -311 OFFCURVE",
"249 -319 CURVE",
"255 -326 OFFCURVE",
"257 -327 OFFCURVE",
"267 -326 CURVE",
"273 -324 OFFCURVE",
"280 -322 OFFCURVE",
"284 -319 CURVE"
);
}
);
width = 618;
}
);
unicode = 0068;
},
{
glyphname = j;
lastChange = "2019-03-07 00:26:12 +0000";
layers = (
{
layerId = "47BBACC6-E520-4FE6-B315-B44B96E25748";
paths = (
{
closed = 1;
nodes = (
"673 -390 OFFCURVE",
"669 -387 OFFCURVE",
"667 -386 CURVE",
"665 -383 OFFCURVE",
"665 -382 OFFCURVE",
"669 -372 CURVE",
"674 -359 OFFCURVE",
"674 -354 OFFCURVE",
"671 -343 CURVE",
"667 -334 OFFCURVE",
"659 -326 OFFCURVE",
"647 -320 CURVE",
"638 -316 OFFCURVE",
"606 -310 OFFCURVE",
"592 -310 CURVE",
"582 -310 LINE",
"582 -316 LINE",
"582 -330 OFFCURVE",
"575 -342 OFFCURVE",
"561 -348 CURVE",
"547 -356 OFFCURVE",
"530 -351 OFFCURVE",
"530 -340 CURVE",
"530 -338 OFFCURVE",
"532 -330 OFFCURVE",
"535 -321 CURVE",
"538 -313 OFFCURVE",
"540 -306 OFFCURVE",
"539 -306 CURVE",
"538 -305 OFFCURVE",
"475 -299 OFFCURVE",
"473 -300 CURVE",
"471 -301 OFFCURVE",
"469 -306 OFFCURVE",
"467 -312 CURVE",
"454 -347 OFFCURVE",
"432 -377 OFFCURVE",
"412 -386 CURVE",
"395 -395 OFFCURVE",
"374 -389 OFFCURVE",
"357 -373 CURVE",
"344 -360 OFFCURVE",
"340 -349 OFFCURVE",
"339 -328 CURVE",
"339 -318 OFFCURVE",
"337 -310 OFFCURVE",
"335 -306 CURVE",
"333 -300 LINE",
"318 -300 LINE",
"310 -300 OFFCURVE",
"258 -301 OFFCURVE",
"203 -303 CURVE",
"60 -308 OFFCURVE",
"65 -308 OFFCURVE",
"62 -305 CURVE",
"59 -301 OFFCURVE",
"61 -294 OFFCURVE",
"68 -291 CURVE",
"79 -285 OFFCURVE",
"94 -284 OFFCURVE",
"162 -282 CURVE",
"204 -281 OFFCURVE",
"235 -279 OFFCURVE",
"248 -279 CURVE",
"260 -277 OFFCURVE",
"284 -275 OFFCURVE",
"302 -274 CURVE",
"333 -273 LINE",
"340 -269 LINE",
"344 -265 OFFCURVE",
"348 -259 OFFCURVE",
"354 -247 CURVE",
"362 -232 OFFCURVE",
"365 -228 OFFCURVE",
"375 -217 CURVE",
"382 -211 OFFCURVE",
"392 -202 OFFCURVE",
"396 -200 CURVE",
"403 -194 OFFCURVE",
"406 -194 OFFCURVE",
"416 -193 CURVE",
"425 -192 OFFCURVE",
"431 -193 OFFCURVE",
"435 -195 CURVE",
"444 -199 OFFCURVE",
"455 -210 OFFCURVE",
"460 -221 CURVE",
"466 -229 OFFCURVE",
"472 -251 OFFCURVE",
"474 -264 CURVE",
"475 -272 LINE",
"497 -272 LINE",
"509 -272 OFFCURVE",
"524 -273 OFFCURVE",
"531 -274 CURVE",
"544 -275 LINE",
"542 -260 LINE",
"541 -246 OFFCURVE",
"541 -246 OFFCURVE",
"546 -241 CURVE",
"552 -235 OFFCURVE",
"557 -233 OFFCURVE",
"565 -233 CURVE",
"571 -233 OFFCURVE",
"573 -234 OFFCURVE",
"577 -240 CURVE",
"584 -246 LINE",
"584 -260 LINE",
"584 -276 LINE",
"589 -279 LINE",
"596 -281 OFFCURVE",
"629 -288 OFFCURVE",
"653 -291 CURVE",
"668 -293 OFFCURVE",
"677 -296 OFFCURVE",
"697 -304 CURVE",
"724 -314 OFFCURVE",
"732 -318 OFFCURVE",
"743 -327 CURVE",
"755 -338 OFFCURVE",
"759 -344 OFFCURVE",
"759 -357 CURVE",
"759 -367 OFFCURVE",
"759 -367 OFFCURVE",
"751 -378 CURVE",
"737 -395 OFFCURVE",
"737 -395 OFFCURVE",
"707 -395 CURVE",
"686 -395 OFFCURVE",
"679 -394 OFFCURVE",
"675 -392 CURVE"
);
},
{
closed = 1;
nodes = (
"414 -331 OFFCURVE",
"423 -314 OFFCURVE",
"424 -304 CURVE",
"425 -297 LINE",
"402 -297 LINE",
"380 -297 LINE",
"379 -303 LINE",
"377 -310 OFFCURVE",
"378 -324 OFFCURVE",
"379 -329 CURVE",
"381 -335 OFFCURVE",
"390 -341 OFFCURVE",
"397 -341 CURVE",
"401 -341 OFFCURVE",
"405 -339 OFFCURVE",
"408 -337 CURVE"
);
},
{
closed = 1;
nodes = (
"431 -256 OFFCURVE",
"427 -241 OFFCURVE",
"419 -236 CURVE",
"412 -232 OFFCURVE",
"407 -232 OFFCURVE",
"397 -238 CURVE",
"388 -242 OFFCURVE",
"382 -250 OFFCURVE",
"382 -260 CURVE",
"380 -273 OFFCURVE",
"380 -272 OFFCURVE",
"404 -272 CURVE",
"426 -272 LINE",
"428 -267 LINE"
);
}
);
width = 779;
}
);
unicode = 006A;
},
{
glyphname = m;
lastChange = "2019-03-07 00:26:12 +0000";
layers = (
{
layerId = "47BBACC6-E520-4FE6-B315-B44B96E25748";
paths = (
{
closed = 1;
nodes = (
"123 -247 OFFCURVE",
"122 -245 OFFCURVE",
"122 -242 CURVE",
"122 -239 OFFCURVE",
"144 -178 OFFCURVE",
"171 -107 CURVE",
"219 24 LINE",
"212 37 LINE",
"201 58 OFFCURVE",
"175 96 OFFCURVE",
"164 108 CURVE",
"151 121 OFFCURVE",
"140 128 OFFCURVE",
"130 130 CURVE",
"122 131 OFFCURVE",
"120 135 OFFCURVE",
"120 148 CURVE",
"120 162 OFFCURVE",
"123 170 OFFCURVE",
"133 179 CURVE",
"141 188 OFFCURVE",
"156 194 OFFCURVE",
"168 195 CURVE",
"175 196 LINE",
"208 155 LINE",
"238 120 OFFCURVE",
"243 115 OFFCURVE",
"248 115 CURVE",
"253 114 OFFCURVE",
"254 115 OFFCURVE",
"259 126 CURVE",
"262 133 OFFCURVE",
"271 152 OFFCURVE",
"279 168 CURVE",
"294 198 OFFCURVE",
"307 218 OFFCURVE",
"314 222 CURVE",
"316 223 OFFCURVE",
"323 223 OFFCURVE",
"331 223 CURVE",
"345 222 LINE",
"347 215 LINE",
"350 208 LINE",
"328 179 LINE",
"309 153 OFFCURVE",
"305 147 OFFCURVE",
"295 124 CURVE",
"281 93 OFFCURVE",
"279 86 OFFCURVE",
"280 68 CURVE",
"280 56 OFFCURVE",
"282 52 OFFCURVE",
"290 35 CURVE",
"295 24 OFFCURVE",
"303 8 OFFCURVE",
"308 0 CURVE",
"317 -17 OFFCURVE",
"344 -81 OFFCURVE",
"356 -118 CURVE",
"368 -154 OFFCURVE",
"373 -172 OFFCURVE",
"374 -190 CURVE",
"375 -210 OFFCURVE",
"373 -215 OFFCURVE",
"359 -223 CURVE",
"348 -230 OFFCURVE",
"338 -231 OFFCURVE",
"335 -226 CURVE",
"334 -224 OFFCURVE",
"322 -194 OFFCURVE",
"309 -159 CURVE",
"289 -107 OFFCURVE",
"281 -89 OFFCURVE",
"264 -55 CURVE",
"252 -33 OFFCURVE",
"242 -14 OFFCURVE",
"241 -14 CURVE",
"241 -14 OFFCURVE",
"222 -65 OFFCURVE",
"201 -128 CURVE",
"162 -243 LINE",
"150 -244 LINE",
"143 -244 OFFCURVE",
"135 -246 OFFCURVE",
"132 -247 CURVE",
"126 -249 OFFCURVE",
"125 -250 OFFCURVE",
"123 -248 CURVE"
);
},
{
closed = 1;
nodes = (
"192 264 OFFCURVE",
"187 279 OFFCURVE",
"185 321 CURVE",
"183 361 OFFCURVE",
"179 381 OFFCURVE",
"168 397 CURVE",
"163 405 OFFCURVE",
"163 411 OFFCURVE",
"168 420 CURVE",
"172 425 LINE",
"260 424 LINE",
"348 423 LINE",
"347 447 LINE",
"345 484 OFFCURVE",
"341 502 OFFCURVE",
"333 518 CURVE",
"327 533 OFFCURVE",
"326 542 OFFCURVE",
"330 549 CURVE",
"334 553 LINE",
"453 553 LINE",
"571 552 LINE",
"579 545 LINE",
"584 540 OFFCURVE",
"586 535 OFFCURVE",
"589 524 CURVE",
"590 501 OFFCURVE",
"593 501 OFFCURVE",
"498 502 CURVE",
"418 504 LINE",
"420 493 LINE",
"420 486 OFFCURVE",
"422 460 OFFCURVE",
"424 433 CURVE",
"427 390 OFFCURVE",
"427 386 OFFCURVE",
"424 381 CURVE",
"420 372 OFFCURVE",
"409 372 OFFCURVE",
"358 374 CURVE",
"333 375 OFFCURVE",
"301 376 OFFCURVE",
"284 376 CURVE",
"256 376 LINE",
"256 371 LINE",
"256 366 OFFCURVE",
"260 342 OFFCURVE",
"261 314 CURVE",
"266 256 OFFCURVE",
"266 258 OFFCURVE",
"242 250 CURVE",
"226 242 OFFCURVE",
"220 243 OFFCURVE",
"210 252 CURVE"
);
}
);
width = 709;
}
);
unicode = 006D;
},
{
glyphname = n;
lastChange = "2019-03-07 00:26:12 +0000";
layers = (
{
layerId = "47BBACC6-E520-4FE6-B315-B44B96E25748";
paths = (
{
closed = 1;
nodes = (
"123 -247 OFFCURVE",
"122 -245 OFFCURVE",
"122 -242 CURVE",
"122 -239 OFFCURVE",
"144 -178 OFFCURVE",
"171 -107 CURVE",
"219 24 LINE",
"212 37 LINE",
"201 58 OFFCURVE",
"175 96 OFFCURVE",
"164 108 CURVE",
"151 121 OFFCURVE",
"140 128 OFFCURVE",
"130 130 CURVE",
"122 131 OFFCURVE",
"120 135 OFFCURVE",
"120 148 CURVE",
"120 162 OFFCURVE",
"123 170 OFFCURVE",
"133 179 CURVE",
"141 188 OFFCURVE",
"156 194 OFFCURVE",
"168 195 CURVE",
"175 196 LINE",
"208 155 LINE",
"238 120 OFFCURVE",
"243 115 OFFCURVE",
"248 115 CURVE",
"253 114 OFFCURVE",
"254 115 OFFCURVE",
"259 126 CURVE",
"262 133 OFFCURVE",
"271 152 OFFCURVE",
"279 168 CURVE",
"294 198 OFFCURVE",
"307 218 OFFCURVE",
"314 222 CURVE",
"316 223 OFFCURVE",
"323 223 OFFCURVE",
"331 223 CURVE",
"345 222 LINE",
"347 215 LINE",
"350 208 LINE",
"328 179 LINE",
"309 153 OFFCURVE",
"305 147 OFFCURVE",
"295 124 CURVE",
"281 93 OFFCURVE",
"279 86 OFFCURVE",
"280 68 CURVE",
"280 56 OFFCURVE",
"282 52 OFFCURVE",
"290 35 CURVE",
"295 24 OFFCURVE",
"303 8 OFFCURVE",
"308 0 CURVE",
"317 -17 OFFCURVE",
"344 -81 OFFCURVE",
"356 -118 CURVE",
"368 -154 OFFCURVE",
"373 -172 OFFCURVE",
"374 -190 CURVE",
"375 -210 OFFCURVE",
"373 -215 OFFCURVE",
"359 -223 CURVE",
"348 -230 OFFCURVE",
"338 -231 OFFCURVE",
"335 -226 CURVE",
"334 -224 OFFCURVE",
"322 -194 OFFCURVE",
"309 -159 CURVE",
"289 -107 OFFCURVE",
"281 -89 OFFCURVE",
"264 -55 CURVE",
"252 -33 OFFCURVE",
"242 -14 OFFCURVE",
"241 -14 CURVE",
"241 -14 OFFCURVE",
"222 -65 OFFCURVE",
"201 -128 CURVE",
"162 -243 LINE",
"150 -244 LINE",
"143 -244 OFFCURVE",
"135 -246 OFFCURVE",
"132 -247 CURVE",
"126 -249 OFFCURVE",
"125 -250 OFFCURVE",
"123 -248 CURVE"
);
},
{
closed = 1;
nodes = (
"226 233 OFFCURVE",
"220 233 OFFCURVE",
"209 240 CURVE",
"189 254 OFFCURVE",
"184 267 OFFCURVE",
"182 311 CURVE",
"180 347 OFFCURVE",
"175 370 OFFCURVE",
"168 387 CURVE",
"161 400 OFFCURVE",
"160 412 OFFCURVE",
"165 418 CURVE",
"168 423 LINE",
"224 421 LINE",
"280 419 OFFCURVE",
"372 419 OFFCURVE",
"401 420 CURVE",
"414 421 OFFCURVE",
"417 421 OFFCURVE",
"421 417 CURVE",
"429 412 OFFCURVE",
"432 404 OFFCURVE",
"434 391 CURVE",
"435 380 OFFCURVE",
"434 379 OFFCURVE",
"430 375 CURVE",
"421 366 OFFCURVE",
"409 365 OFFCURVE",
"360 370 CURVE",
"351 371 OFFCURVE",
"324 372 OFFCURVE",
"299 372 CURVE",
"258 372 OFFCURVE",
"255 372 OFFCURVE",
"255 369 CURVE",
"255 367 OFFCURVE",
"257 340 OFFCURVE",
"260 309 CURVE",
"264 253 LINE",
"259 248 LINE",
"256 245 OFFCURVE",
"249 241 OFFCURVE",
"242 239 CURVE"
);
}
);
width = 554;
}
);
unicode = 006E;
},
{
glyphname = o;
lastChange = "2019-04-16 17:18:00 +0000";
layers = (
{
components = (
{
name = _part.two_beats;
transform = "{1, 0, 0, 1, 391, 186}";
},
{
name = _part.apostrophoi;
transform = "{1, 0, 0, 1, 300, -346}";
}
);
layerId = "47BBACC6-E520-4FE6-B315-B44B96E25748";
paths = (
{
closed = 1;
nodes = (
"202 -129 OFFCURVE",
"178 -118 OFFCURVE",
"160 -99 CURVE SMOOTH",
"150 -88 OFFCURVE",
"150 -87 OFFCURVE",
"150 -73 CURVE SMOOTH",
"150 -55 OFFCURVE",
"157 -40 OFFCURVE",
"171 -27 CURVE",
"190 -12 OFFCURVE",
"208 -6 OFFCURVE",
"294 3 CURVE",
"315 6 OFFCURVE",
"322 6 OFFCURVE",
"331 3 CURVE",
"345 0 OFFCURVE",
"360 -13 OFFCURVE",
"358 -19 CURVE SMOOTH",
"357 -22 OFFCURVE",
"342 -36 OFFCURVE",
"324 -51 CURVE SMOOTH",
"300 -70 OFFCURVE",
"292 -79 OFFCURVE",
"294 -81 CURVE SMOOTH",
"295 -82 OFFCURVE",
"315 -84 OFFCURVE",
"349 -84 CURVE SMOOTH",
"417 -84 OFFCURVE",
"468 -76 OFFCURVE",
"636 -48 CURVE SMOOTH",
"688 -39 OFFCURVE",
"739 -33 OFFCURVE",
"825 -27 CURVE SMOOTH",
"876 -24 OFFCURVE",
"886 -24 OFFCURVE",
"910 -27 CURVE SMOOTH",
"973 -37 OFFCURVE",
"1003 -54 OFFCURVE",
"999 -81 CURVE",
"999 -91 OFFCURVE",
"970 -115 OFFCURVE",
"945 -129 CURVE",
"927 -136 OFFCURVE",
"925 -138 OFFCURVE",
"892 -138 CURVE",
"873 -139 OFFCURVE",
"853 -138 OFFCURVE",
"849 -138 CURVE",
"840 -136 OFFCURVE",
"814 -117 OFFCURVE",
"814 -111 CURVE SMOOTH",
"814 -109 OFFCURVE",
"825 -100 OFFCURVE",
"838 -91 CURVE",
"862 -73 LINE",
"834 -75 LINE SMOOTH",
"781 -78 OFFCURVE",
"666 -94 OFFCURVE",
"534 -117 CURVE SMOOTH",
"436 -135 OFFCURVE",
"420 -136 OFFCURVE",
"337 -138 CURVE SMOOTH",
"280 -138 OFFCURVE",
"255 -138 OFFCURVE",
"240 -135 CURVE"
);
}
);
width = 1290;
}
);
unicode = 006F;
},
{
glyphname = q;
lastChange = "2019-03-07 00:26:12 +0000";
layers = (
{
layerId = "47BBACC6-E520-4FE6-B315-B44B96E25748";
paths = (
{
closed = 1;
nodes = (
"370 -651 OFFCURVE",
"363 -648 OFFCURVE",
"363 -641 CURVE",
"363 -639 OFFCURVE",
"367 -623 OFFCURVE",
"373 -608 CURVE",
"382 -580 OFFCURVE",
"383 -579 OFFCURVE",
"381 -571 CURVE",
"378 -557 OFFCURVE",
"364 -538 OFFCURVE",
"339 -513 CURVE",
"291 -464 OFFCURVE",
"268 -428 OFFCURVE",
"260 -388 CURVE",
"256 -366 OFFCURVE",
"257 -324 OFFCURVE",
"264 -285 CURVE",
"265 -279 OFFCURVE",
"264 -279 OFFCURVE",
"244 -299 CURVE",
"213 -329 OFFCURVE",
"195 -339 OFFCURVE",
"166 -341 CURVE",
"154 -342 OFFCURVE",
"148 -342 OFFCURVE",
"141 -340 CURVE",
"97 -327 OFFCURVE",
"88 -284 OFFCURVE",
"118 -233 CURVE",
"135 -204 OFFCURVE",
"171 -169 OFFCURVE",
"196 -158 CURVE",
"213 -149 OFFCURVE",
"232 -143 OFFCURVE",
"241 -143 CURVE",
"251 -143 OFFCURVE",
"263 -151 OFFCURVE",
"274 -164 CURVE",
"280 -172 LINE",
"284 -157 LINE",
"286 -148 OFFCURVE",
"290 -139 OFFCURVE",
"292 -137 CURVE",
"296 -132 OFFCURVE",
"297 -132 OFFCURVE",
"303 -134 CURVE",
"316 -139 OFFCURVE",
"336 -149 OFFCURVE",
"340 -154 CURVE",
"345 -159 LINE",
"335 -190 LINE",
"309 -274 OFFCURVE",
"295 -335 OFFCURVE",
"295 -363 CURVE",
"295 -372 OFFCURVE",
"297 -382 OFFCURVE",
"301 -397 CURVE",
"311 -433 OFFCURVE",
"317 -446 OFFCURVE",
"327 -457 CURVE",
"338 -469 OFFCURVE",
"362 -486 OFFCURVE",
"388 -500 CURVE",
"419 -516 OFFCURVE",
"434 -539 OFFCURVE",
"438 -579 CURVE",
"440 -595 OFFCURVE",
"440 -596 OFFCURVE",
"434 -621 CURVE",
"430 -636 OFFCURVE",
"426 -648 OFFCURVE",
"424 -650 CURVE",
"420 -654 OFFCURVE",
"405 -655 OFFCURVE",
"387 -653 CURVE"
);
},
{
closed = 1;
nodes = (
"213 -295 OFFCURVE",
"232 -261 OFFCURVE",
"242 -219 CURVE",
"246 -205 OFFCURVE",
"249 -191 OFFCURVE",
"249 -186 CURVE",
"251 -179 OFFCURVE",
"250 -178 OFFCURVE",
"247 -176 CURVE",
"237 -173 OFFCURVE",
"210 -199 OFFCURVE",
"194 -226 CURVE",
"173 -262 OFFCURVE",
"167 -288 OFFCURVE",
"176 -302 CURVE",
"179 -307 OFFCURVE",
"186 -307 OFFCURVE",
"196 -303 CURVE"
);
}
);
width = 629;
}
);
unicode = 0071;
},
{
glyphname = r;
lastChange = "2019-03-07 00:26:12 +0000";
layers = (
{
layerId = "47BBACC6-E520-4FE6-B315-B44B96E25748";
paths = (
{
closed = 1;
nodes = (
"406 -606 OFFCURVE",
"416 -573 OFFCURVE",
"435 -540 CURVE SMOOTH",
"452 -508 OFFCURVE",
"462 -482 OFFCURVE",
"459 -482 CURVE SMOOTH",
"456 -482 OFFCURVE",
"435 -482 OFFCURVE",
"416 -483 CURVE SMOOTH",
"363 -485 OFFCURVE",
"359 -475 OFFCURVE",
"372 -375 CURVE SMOOTH",
"385 -279 OFFCURVE",
"385 -258 OFFCURVE",
"373 -240 CURVE",
"365 -230 OFFCURVE",
"357 -228 OFFCURVE",
"337 -232 CURVE SMOOTH",
"284 -242 OFFCURVE",
"272 -299 OFFCURVE",
"305 -394 CURVE SMOOTH",
"343 -502 OFFCURVE",
"312 -565 OFFCURVE",
"221 -565 CURVE SMOOTH",
"127 -565 OFFCURVE",
"74 -490 OFFCURVE",
"112 -411 CURVE SMOOTH",
"127 -377 OFFCURVE",
"160 -361 OFFCURVE",
"201 -366 CURVE",
"232 -372 LINE",
"225 -351 LINE SMOOTH",
"221 -339 OFFCURVE",
"217 -311 OFFCURVE",
"216 -287 CURVE",
"216 -239 OFFCURVE",
"230 -213 OFFCURVE",
"269 -189 CURVE SMOOTH",
"300 -171 OFFCURVE",
"377 -170 OFFCURVE",
"409 -187 CURVE SMOOTH",
"454 -209 OFFCURVE",
"458 -248 OFFCURVE",
"433 -376 CURVE SMOOTH",
"423 -430 LINE",
"468 -426 LINE SMOOTH",
"493 -424 OFFCURVE",
"518 -426 OFFCURVE",
"523 -430 CURVE",
"542 -443 OFFCURVE",
"534 -480 OFFCURVE",
"504 -532 CURVE SMOOTH",
"473 -582 OFFCURVE",
"459 -624 OFFCURVE",
"469 -638 CURVE",
"472 -644 OFFCURVE",
"461 -648 OFFCURVE",
"440 -648 CURVE SMOOTH",
"406 -648 OFFCURVE",
"406 -648 OFFCURVE",
"406 -620 CURVE SMOOTH"
);
},
{
closed = 1;
nodes = (
"295 -469 OFFCURVE",
"269 -408 OFFCURVE",
"224 -408 CURVE SMOOTH",
"193 -408 OFFCURVE",
"177 -419 OFFCURVE",
"168 -446 CURVE SMOOTH",
"146 -507 OFFCURVE",
"223 -553 OFFCURVE",
"266 -504 CURVE SMOOTH"
);
},
{
closed = 1;
nodes = (
"212 -123 OFFCURVE",
"216 -111 OFFCURVE",
"240 -107 CURVE SMOOTH",
"253 -105 OFFCURVE",
"264 -97 OFFCURVE",
"264 -87 CURVE SMOOTH",
"264 -71 OFFCURVE",
"247 -62 OFFCURVE",
"195 -54 CURVE SMOOTH",
"154 -48 OFFCURVE",
"143 -28 OFFCURVE",
"180 -28 CURVE SMOOTH",
"215 -28 OFFCURVE",
"290 -46 OFFCURVE",
"311 -60 CURVE SMOOTH",
"333 -74 OFFCURVE",
"337 -101 OFFCURVE",
"319 -117 CURVE SMOOTH",
"308 -127 OFFCURVE",
"253 -134 OFFCURVE",
"231 -128 CURVE SMOOTH"
);
},
{
closed = 1;
nodes = (
"389 -123 OFFCURVE",
"393 -111 OFFCURVE",
"417 -107 CURVE SMOOTH",
"430 -105 OFFCURVE",
"441 -97 OFFCURVE",
"441 -87 CURVE SMOOTH",
"441 -71 OFFCURVE",
"424 -62 OFFCURVE",
"372 -54 CURVE SMOOTH",
"331 -48 OFFCURVE",
"320 -28 OFFCURVE",
"357 -28 CURVE SMOOTH",
"392 -28 OFFCURVE",
"467 -46 OFFCURVE",
"488 -60 CURVE SMOOTH",
"510 -74 OFFCURVE",
"514 -101 OFFCURVE",
"496 -117 CURVE SMOOTH",
"485 -127 OFFCURVE",
"430 -134 OFFCURVE",
"408 -128 CURVE SMOOTH"
);
}
);
width = 672;
}
);
unicode = 0072;
},
{
glyphname = s;
lastChange = "2019-04-16 17:47:15 +0000";
layers = (
{
layerId = "47BBACC6-E520-4FE6-B315-B44B96E25748";
paths = (
{
closed = 1;
nodes = (
"181 -413 OFFCURVE",
"233 -377 OFFCURVE",
"269 -362 CURVE",
"303 -346 OFFCURVE",
"307 -345 OFFCURVE",
"338 -350 CURVE SMOOTH",
"381 -356 OFFCURVE",
"443 -350 OFFCURVE",
"466 -337 CURVE SMOOTH",
"494 -320 OFFCURVE",
"507 -295 OFFCURVE",
"507 -262 CURVE SMOOTH",
"507 -235 LINE",
"565 -212 LINE SMOOTH",
"632 -184 OFFCURVE",
"685 -154 OFFCURVE",
"687 -142 CURVE",
"693 -114 OFFCURVE",
"663 -96 OFFCURVE",
"642 -111 CURVE SMOOTH",
"609 -134 OFFCURVE",
"540 -180 OFFCURVE",
"518 -190 CURVE",
"500 -199 OFFCURVE",
"487 -203 OFFCURVE",
"467 -201 CURVE",
"453 -199 OFFCURVE",
"416 -198 OFFCURVE",
"387 -198 CURVE SMOOTH",
"344 -198 OFFCURVE",
"329 -199 OFFCURVE",
"317 -208 CURVE",
"291 -223 OFFCURVE",
"278 -247 OFFCURVE",
"278 -283 CURVE SMOOTH",
"277 -315 LINE",
"224 -338 LINE SMOOTH",
"157 -365 OFFCURVE",
"138 -376 OFFCURVE",
"117 -394 CURVE",
"96 -407 OFFCURVE",
"95 -415 OFFCURVE",
"109 -434 CURVE",
"123 -451 OFFCURVE",
"130 -451 OFFCURVE",
"150 -436 CURVE SMOOTH"
);
},
{
closed = 1;
nodes = (
"327 -285 OFFCURVE",
"328 -268 OFFCURVE",
"346 -248 CURVE SMOOTH",
"359 -233 OFFCURVE",
"365 -231 OFFCURVE",
"388 -231 CURVE SMOOTH",
"423 -231 OFFCURVE",
"443 -244 OFFCURVE",
"441 -267 CURVE",
"441 -278 OFFCURVE",
"434 -287 OFFCURVE",
"425 -294 CURVE SMOOTH",
"404 -310 OFFCURVE",
"352 -313 OFFCURVE",
"338 -299 CURVE"
);
}
);
width = 724;
}
);
unicode = 0073;
},
{
glyphname = t;
lastChange = "2019-04-16 17:18:00 +0000";
layers = (
{
components = (
{
name = _part.apostrophoi;
transform = "{0.9, 0, 0, 0.9, -23, -548}";
}
);
layerId = "47BBACC6-E520-4FE6-B315-B44B96E25748";
paths = (
{
closed = 1;
nodes = (
"370 -771 OFFCURVE",
"363 -768 OFFCURVE",
"363 -761 CURVE SMOOTH",
"363 -759 OFFCURVE",
"367 -743 OFFCURVE",
"373 -728 CURVE",
"382 -700 OFFCURVE",
"383 -699 OFFCURVE",
"381 -691 CURVE SMOOTH",
"378 -677 OFFCURVE",
"364 -658 OFFCURVE",
"339 -633 CURVE SMOOTH",
"291 -584 OFFCURVE",
"268 -548 OFFCURVE",
"260 -508 CURVE SMOOTH",
"256 -486 OFFCURVE",
"257 -444 OFFCURVE",
"264 -405 CURVE SMOOTH",
"265 -399 OFFCURVE",
"264 -399 OFFCURVE",
"244 -419 CURVE SMOOTH",
"213 -449 OFFCURVE",
"195 -459 OFFCURVE",
"166 -461 CURVE SMOOTH",
"154 -462 OFFCURVE",
"148 -462 OFFCURVE",
"141 -460 CURVE SMOOTH",
"97 -447 OFFCURVE",
"88 -404 OFFCURVE",
"118 -353 CURVE SMOOTH",
"135 -324 OFFCURVE",
"171 -289 OFFCURVE",
"196 -278 CURVE",
"213 -269 OFFCURVE",
"232 -263 OFFCURVE",
"241 -263 CURVE SMOOTH",
"251 -263 OFFCURVE",
"263 -271 OFFCURVE",
"274 -284 CURVE",
"280 -292 LINE",
"284 -277 LINE",
"286 -268 OFFCURVE",
"290 -259 OFFCURVE",
"292 -257 CURVE",
"296 -252 OFFCURVE",
"297 -252 OFFCURVE",
"303 -254 CURVE",
"316 -259 OFFCURVE",
"336 -269 OFFCURVE",
"340 -274 CURVE",
"345 -279 LINE",
"335 -310 LINE SMOOTH",
"309 -394 OFFCURVE",
"295 -455 OFFCURVE",
"295 -483 CURVE SMOOTH",
"295 -492 OFFCURVE",
"297 -502 OFFCURVE",
"301 -517 CURVE SMOOTH",
"311 -553 OFFCURVE",
"317 -566 OFFCURVE",
"327 -577 CURVE SMOOTH",
"338 -589 OFFCURVE",
"362 -606 OFFCURVE",
"388 -620 CURVE SMOOTH",
"419 -636 OFFCURVE",
"434 -659 OFFCURVE",
"438 -699 CURVE SMOOTH",
"440 -715 OFFCURVE",
"440 -716 OFFCURVE",
"434 -741 CURVE SMOOTH",
"430 -756 OFFCURVE",
"426 -768 OFFCURVE",
"424 -770 CURVE SMOOTH",
"420 -774 OFFCURVE",
"405 -775 OFFCURVE",
"387 -773 CURVE SMOOTH"
);
},
{
closed = 1;
nodes = (
"213 -415 OFFCURVE",
"232 -381 OFFCURVE",
"242 -339 CURVE",
"246 -325 OFFCURVE",
"249 -311 OFFCURVE",
"249 -306 CURVE",
"251 -299 OFFCURVE",
"250 -298 OFFCURVE",
"247 -296 CURVE",
"237 -293 OFFCURVE",
"210 -319 OFFCURVE",
"194 -346 CURVE SMOOTH",
"173 -382 OFFCURVE",
"167 -408 OFFCURVE",
"176 -422 CURVE SMOOTH",
"179 -427 OFFCURVE",
"186 -427 OFFCURVE",
"196 -423 CURVE"
);
}
);
width = 630;
}
);
unicode = 0074;
},
{
glyphname = u;
lastChange = "2019-03-07 00:26:12 +0000";
layers = (
{
layerId = "47BBACC6-E520-4FE6-B315-B44B96E25748";
paths = (
{
closed = 1;
nodes = (
"420 -553 OFFCURVE",
"432 -533 OFFCURVE",
"442 -518 CURVE SMOOTH",
"468 -479 OFFCURVE",
"465 -471 OFFCURVE",
"422 -477 CURVE SMOOTH",
"364 -485 OFFCURVE",
"359 -472 OFFCURVE",
"372 -359 CURVE SMOOTH",
"378 -306 OFFCURVE",
"380 -256 OFFCURVE",
"377 -247 CURVE",
"368 -223 OFFCURVE",
"314 -225 OFFCURVE",
"300 -249 CURVE",
"286 -276 OFFCURVE",
"288 -348 OFFCURVE",
"305 -395 CURVE SMOOTH",
"341 -494 OFFCURVE",
"306 -560 OFFCURVE",
"219 -560 CURVE SMOOTH",
"115 -560 OFFCURVE",
"62 -456 OFFCURVE",
"130 -388 CURVE SMOOTH",
"155 -363 OFFCURVE",
"167 -359 OFFCURVE",
"195 -362 CURVE SMOOTH",
"214 -364 OFFCURVE",
"230 -364 OFFCURVE",
"230 -360 CURVE SMOOTH",
"230 -357 OFFCURVE",
"225 -336 OFFCURVE",
"220 -312 CURVE SMOOTH",
"203 -228 OFFCURVE",
"252 -170 OFFCURVE",
"344 -170 CURVE SMOOTH",
"432 -170 OFFCURVE",
"460 -213 OFFCURVE",
"441 -323 CURVE SMOOTH",
"434 -363 OFFCURVE",
"427 -402 OFFCURVE",
"424 -410 CURVE",
"421 -423 OFFCURVE",
"430 -426 OFFCURVE",
"472 -425 CURVE SMOOTH",
"522 -424 OFFCURVE",
"525 -426 OFFCURVE",
"528 -452 CURVE SMOOTH",
"530 -468 OFFCURVE",
"521 -495 OFFCURVE",
"506 -519 CURVE SMOOTH",
"492 -541 OFFCURVE",
"480 -564 OFFCURVE",
"480 -570 CURVE SMOOTH",
"480 -575 OFFCURVE",
"464 -580 OFFCURVE",
"445 -580 CURVE SMOOTH",
"417 -580 OFFCURVE",
"412 -577 OFFCURVE",
"417 -563 CURVE"
);
},
{
closed = 1;
nodes = (
"272 -494 OFFCURVE",
"280 -476 OFFCURVE",
"280 -463 CURVE SMOOTH",
"280 -435 OFFCURVE",
"247 -400 OFFCURVE",
"220 -400 CURVE SMOOTH",
"194 -400 OFFCURVE",
"160 -434 OFFCURVE",
"160 -460 CURVE SMOOTH",
"160 -486 OFFCURVE",
"194 -520 OFFCURVE",
"222 -520 CURVE SMOOTH",
"234 -520 OFFCURVE",
"252 -513 OFFCURVE",
"262 -503 CURVE"
);
},
{
closed = 1;
nodes = (
"420 -553 OFFCURVE",
"432 -533 OFFCURVE",
"442 -518 CURVE SMOOTH",
"468 -479 OFFCURVE",
"465 -471 OFFCURVE",
"422 -477 CURVE SMOOTH",
"364 -485 OFFCURVE",
"359 -472 OFFCURVE",
"372 -359 CURVE SMOOTH",
"378 -306 OFFCURVE",
"380 -256 OFFCURVE",
"377 -247 CURVE",
"368 -223 OFFCURVE",
"314 -225 OFFCURVE",
"300 -249 CURVE",
"286 -276 OFFCURVE",
"288 -348 OFFCURVE",
"305 -395 CURVE SMOOTH",
"341 -494 OFFCURVE",
"306 -560 OFFCURVE",
"219 -560 CURVE SMOOTH",
"115 -560 OFFCURVE",
"62 -456 OFFCURVE",
"130 -388 CURVE SMOOTH",
"155 -363 OFFCURVE",
"167 -359 OFFCURVE",
"195 -362 CURVE SMOOTH",
"214 -364 OFFCURVE",
"230 -364 OFFCURVE",
"230 -360 CURVE SMOOTH",
"230 -357 OFFCURVE",
"225 -336 OFFCURVE",
"220 -312 CURVE SMOOTH",
"203 -228 OFFCURVE",
"252 -170 OFFCURVE",
"344 -170 CURVE SMOOTH",
"432 -170 OFFCURVE",
"460 -213 OFFCURVE",
"441 -323 CURVE SMOOTH",
"434 -363 OFFCURVE",
"427 -402 OFFCURVE",
"424 -410 CURVE",
"421 -423 OFFCURVE",
"430 -426 OFFCURVE",
"472 -425 CURVE SMOOTH",
"522 -424 OFFCURVE",
"525 -426 OFFCURVE",
"528 -452 CURVE SMOOTH",
"530 -468 OFFCURVE",
"521 -495 OFFCURVE",
"506 -519 CURVE SMOOTH",
"492 -541 OFFCURVE",
"480 -564 OFFCURVE",
"480 -570 CURVE SMOOTH",
"480 -575 OFFCURVE",
"464 -580 OFFCURVE",
"445 -580 CURVE SMOOTH",
"417 -580 OFFCURVE",
"412 -577 OFFCURVE",
"417 -563 CURVE"
);
},
{
closed = 1;
nodes = (
"272 -494 OFFCURVE",
"280 -476 OFFCURVE",
"280 -463 CURVE SMOOTH",
"280 -435 OFFCURVE",
"247 -400 OFFCURVE",
"220 -400 CURVE SMOOTH",
"194 -400 OFFCURVE",
"160 -434 OFFCURVE",
"160 -460 CURVE SMOOTH",
"160 -486 OFFCURVE",
"194 -520 OFFCURVE",
"222 -520 CURVE SMOOTH",
"234 -520 OFFCURVE",
"252 -513 OFFCURVE",
"262 -503 CURVE"
);
}
);
width = 676;
}
);
unicode = 0075;
},
{
glyphname = v;
lastChange = "2019-03-07 00:26:12 +0000";
layers = (
{
layerId = "47BBACC6-E520-4FE6-B315-B44B96E25748";
paths = (
{
closed = 1;
nodes = (
"222 -247 OFFCURVE",
"221 -245 OFFCURVE",
"221 -242 CURVE",
"221 -239 OFFCURVE",
"243 -178 OFFCURVE",
"270 -107 CURVE",
"318 24 LINE",
"311 37 LINE",
"300 58 OFFCURVE",
"274 96 OFFCURVE",
"263 108 CURVE",
"250 121 OFFCURVE",
"239 128 OFFCURVE",
"229 130 CURVE",
"221 131 OFFCURVE",
"219 135 OFFCURVE",
"219 148 CURVE",
"219 162 OFFCURVE",
"222 170 OFFCURVE",
"232 179 CURVE",
"240 188 OFFCURVE",
"255 194 OFFCURVE",
"267 195 CURVE",
"274 196 LINE",
"307 155 LINE",
"337 120 OFFCURVE",
"342 115 OFFCURVE",
"347 115 CURVE",
"352 114 OFFCURVE",
"353 115 OFFCURVE",
"358 126 CURVE",
"361 133 OFFCURVE",
"370 152 OFFCURVE",
"378 168 CURVE",
"393 198 OFFCURVE",
"406 218 OFFCURVE",
"413 222 CURVE",
"415 223 OFFCURVE",
"422 223 OFFCURVE",
"430 223 CURVE",
"444 222 LINE",
"446 215 LINE",
"449 208 LINE",
"427 179 LINE",
"408 153 OFFCURVE",
"404 147 OFFCURVE",
"394 124 CURVE",
"380 93 OFFCURVE",
"378 86 OFFCURVE",
"379 68 CURVE",
"379 56 OFFCURVE",
"381 52 OFFCURVE",
"389 35 CURVE",
"394 24 OFFCURVE",
"402 8 OFFCURVE",
"407 0 CURVE",
"416 -17 OFFCURVE",
"443 -81 OFFCURVE",
"455 -118 CURVE",
"467 -154 OFFCURVE",
"472 -172 OFFCURVE",
"473 -190 CURVE",
"474 -210 OFFCURVE",
"472 -215 OFFCURVE",
"458 -223 CURVE",
"447 -230 OFFCURVE",
"437 -231 OFFCURVE",
"434 -226 CURVE",
"433 -224 OFFCURVE",
"421 -194 OFFCURVE",
"408 -159 CURVE",
"388 -107 OFFCURVE",
"380 -89 OFFCURVE",
"363 -55 CURVE",
"351 -33 OFFCURVE",
"341 -14 OFFCURVE",
"340 -14 CURVE",
"340 -14 OFFCURVE",
"321 -65 OFFCURVE",
"300 -128 CURVE",
"261 -243 LINE",
"249 -244 LINE",
"242 -244 OFFCURVE",
"234 -246 OFFCURVE",
"231 -247 CURVE",
"225 -249 OFFCURVE",
"224 -250 OFFCURVE",
"222 -248 CURVE"
);
},
{
closed = 1;
nodes = (
"306 241 OFFCURVE",
"299 245 OFFCURVE",
"296 248 CURVE",
"291 253 LINE",
"295 309 LINE",
"298 340 OFFCURVE",
"300 367 OFFCURVE",
"300 369 CURVE",
"300 372 OFFCURVE",
"297 372 OFFCURVE",
"256 372 CURVE",
"231 372 OFFCURVE",
"204 371 OFFCURVE",
"195 370 CURVE",
"146 365 OFFCURVE",
"134 366 OFFCURVE",
"125 375 CURVE",
"121 379 OFFCURVE",
"120 380 OFFCURVE",
"121 391 CURVE",
"123 404 OFFCURVE",
"126 412 OFFCURVE",
"134 417 CURVE",
"138 421 OFFCURVE",
"141 421 OFFCURVE",
"154 420 CURVE",
"183 419 OFFCURVE",
"275 419 OFFCURVE",
"331 421 CURVE",
"387 423 LINE",
"390 418 LINE",
"395 412 OFFCURVE",
"394 400 OFFCURVE",
"387 387 CURVE",
"380 370 OFFCURVE",
"375 347 OFFCURVE",
"373 311 CURVE",
"371 267 OFFCURVE",
"366 254 OFFCURVE",
"346 240 CURVE",
"335 233 OFFCURVE",
"329 233 OFFCURVE",
"313 239 CURVE"
);
}
);
width = 593;
}
);
unicode = 0076;
},
{
glyphname = w;
lastChange = "2019-03-07 00:26:12 +0000";
layers = (
{
layerId = "47BBACC6-E520-4FE6-B315-B44B96E25748";
paths = (
{
closed = 1;
nodes = (
"334 -497 OFFCURVE",
"296 -475 OFFCURVE",
"268 -445 CURVE",
"255 -431 OFFCURVE",
"239 -408 OFFCURVE",
"230 -393 CURVE",
"224 -381 LINE",
"209 -409 LINE",
"194 -440 OFFCURVE",
"181 -459 OFFCURVE",
"168 -475 CURVE",
"158 -485 LINE",
"146 -485 LINE",
"131 -485 OFFCURVE",
"107 -480 OFFCURVE",
"102 -478 CURVE",
"98 -475 OFFCURVE",
"100 -468 OFFCURVE",
"112 -453 CURVE",
"151 -402 OFFCURVE",
"186 -335 OFFCURVE",
"192 -301 CURVE",
"196 -286 OFFCURVE",
"179 -242 OFFCURVE",
"161 -217 CURVE",
"145 -198 OFFCURVE",
"132 -189 OFFCURVE",
"98 -178 CURVE",
"77 -170 LINE",
"77 -162 LINE",
"77 -154 OFFCURVE",
"84 -148 OFFCURVE",
"101 -146 CURVE",
"121 -143 OFFCURVE",
"136 -145 OFFCURVE",
"156 -155 CURVE",
"184 -169 OFFCURVE",
"221 -202 OFFCURVE",
"234 -222 CURVE",
"243 -239 OFFCURVE",
"265 -288 OFFCURVE",
"284 -332 CURVE",
"290 -348 OFFCURVE",
"297 -361 OFFCURVE",
"298 -361 CURVE",
"298 -360 OFFCURVE",
"299 -352 OFFCURVE",
"299 -341 CURVE",
"299 -323 OFFCURVE",
"299 -322 OFFCURVE",
"304 -316 CURVE",
"309 -313 LINE",
"376 -320 LINE",
"443 -325 LINE",
"449 -332 LINE",
"453 -339 OFFCURVE",
"453 -345 OFFCURVE",
"447 -350 CURVE",
"443 -357 LINE",
"398 -355 LINE",
"373 -353 OFFCURVE",
"351 -352 OFFCURVE",
"351 -353 CURVE",
"349 -356 OFFCURVE",
"354 -420 OFFCURVE",
"357 -434 CURVE",
"361 -453 OFFCURVE",
"367 -459 OFFCURVE",
"376 -464 CURVE",
"387 -468 OFFCURVE",
"398 -477 OFFCURVE",
"403 -485 CURVE",
"407 -490 OFFCURVE",
"407 -492 OFFCURVE",
"399 -500 CURVE",
"396 -503 OFFCURVE",
"387 -504 OFFCURVE",
"373 -502 CURVE"
);
}
);
width = 609;
}
);
unicode = 0077;
},
{
glyphname = x;
lastChange = "2019-03-07 00:26:12 +0000";
layers = (
{
layerId = "47BBACC6-E520-4FE6-B315-B44B96E25748";
paths = (
{
closed = 1;
nodes = (
"368 -247 OFFCURVE",
"367 -245 OFFCURVE",
"367 -242 CURVE",
"367 -239 OFFCURVE",
"389 -178 OFFCURVE",
"416 -107 CURVE",
"464 24 LINE",
"457 37 LINE",
"446 58 OFFCURVE",
"420 96 OFFCURVE",
"409 108 CURVE",
"396 121 OFFCURVE",
"385 128 OFFCURVE",
"375 130 CURVE",
"367 131 OFFCURVE",
"365 135 OFFCURVE",
"365 148 CURVE",
"365 162 OFFCURVE",
"368 170 OFFCURVE",
"378 179 CURVE",
"386 188 OFFCURVE",
"401 194 OFFCURVE",
"413 195 CURVE",
"420 196 LINE",
"453 155 LINE",
"483 120 OFFCURVE",
"488 115 OFFCURVE",
"493 115 CURVE",
"498 114 OFFCURVE",
"499 115 OFFCURVE",
"504 126 CURVE",
"507 133 OFFCURVE",
"516 152 OFFCURVE",
"524 168 CURVE",
"539 198 OFFCURVE",
"552 218 OFFCURVE",
"559 222 CURVE",
"561 223 OFFCURVE",
"568 223 OFFCURVE",
"576 223 CURVE",
"590 222 LINE",
"592 215 LINE",
"595 208 LINE",
"573 179 LINE",
"554 153 OFFCURVE",
"550 147 OFFCURVE",
"540 124 CURVE",
"526 93 OFFCURVE",
"524 86 OFFCURVE",
"525 68 CURVE",
"525 56 OFFCURVE",
"527 52 OFFCURVE",
"535 35 CURVE",
"540 24 OFFCURVE",
"548 8 OFFCURVE",
"553 0 CURVE",
"562 -17 OFFCURVE",
"589 -81 OFFCURVE",
"601 -118 CURVE",
"613 -154 OFFCURVE",
"618 -172 OFFCURVE",
"619 -190 CURVE",
"620 -210 OFFCURVE",
"618 -215 OFFCURVE",
"604 -223 CURVE",
"593 -230 OFFCURVE",
"583 -231 OFFCURVE",
"580 -226 CURVE",
"579 -224 OFFCURVE",
"567 -194 OFFCURVE",
"554 -159 CURVE",
"534 -107 OFFCURVE",
"526 -89 OFFCURVE",
"509 -55 CURVE",
"497 -33 OFFCURVE",
"487 -14 OFFCURVE",
"486 -14 CURVE",
"486 -14 OFFCURVE",
"467 -65 OFFCURVE",
"446 -128 CURVE",
"407 -243 LINE",
"395 -244 LINE",
"388 -244 OFFCURVE",
"380 -246 OFFCURVE",
"377 -247 CURVE",
"371 -249 OFFCURVE",
"370 -250 OFFCURVE",
"368 -248 CURVE"
);
},
{
closed = 1;
nodes = (
"489 243 OFFCURVE",
"483 242 OFFCURVE",
"467 250 CURVE",
"443 258 OFFCURVE",
"443 256 OFFCURVE",
"448 314 CURVE",
"449 342 OFFCURVE",
"453 366 OFFCURVE",
"453 371 CURVE",
"453 376 LINE",
"425 376 LINE",
"408 376 OFFCURVE",
"376 375 OFFCURVE",
"351 374 CURVE",
"300 372 OFFCURVE",
"289 372 OFFCURVE",
"285 381 CURVE",
"282 386 OFFCURVE",
"282 390 OFFCURVE",
"285 433 CURVE",
"287 460 OFFCURVE",
"289 486 OFFCURVE",
"289 493 CURVE",
"291 504 LINE",
"211 502 LINE",
"116 501 OFFCURVE",
"119 501 OFFCURVE",
"120 524 CURVE",
"123 535 OFFCURVE",
"125 540 OFFCURVE",
"130 545 CURVE",
"138 552 LINE",
"256 553 LINE",
"375 553 LINE",
"379 549 LINE",
"383 542 OFFCURVE",
"382 533 OFFCURVE",
"376 518 CURVE",
"368 502 OFFCURVE",
"364 484 OFFCURVE",
"362 447 CURVE",
"361 423 LINE",
"449 424 LINE",
"537 425 LINE",
"541 420 LINE",
"546 411 OFFCURVE",
"546 405 OFFCURVE",
"541 397 CURVE",
"530 381 OFFCURVE",
"526 361 OFFCURVE",
"524 321 CURVE",
"522 279 OFFCURVE",
"517 264 OFFCURVE",
"499 252 CURVE"
);
}
);
width = 739;
}
);
unicode = 0078;
},
{
glyphname = y;
lastChange = "2019-03-07 00:26:12 +0000";
layers = (
{
layerId = "47BBACC6-E520-4FE6-B315-B44B96E25748";
paths = (
{
closed = 1;
nodes = (
"451 -402 OFFCURVE",
"445 -351 OFFCURVE",
"440 -241 CURVE SMOOTH",
"437 -213 OFFCURVE",
"442 -209 OFFCURVE",
"426 -231 CURVE SMOOTH",
"411 -253 OFFCURVE",
"382 -298 OFFCURVE",
"370 -313 CURVE SMOOTH",
"344 -346 OFFCURVE",
"316 -367 OFFCURVE",
"299 -367 CURVE SMOOTH",
"290 -367 OFFCURVE",
"285 -360 OFFCURVE",
"264 -335 CURVE SMOOTH",
"263 -335 OFFCURVE",
"259 -340 OFFCURVE",
"253 -346 CURVE SMOOTH",
"236 -366 OFFCURVE",
"215 -374 OFFCURVE",
"182 -373 CURVE SMOOTH",
"116 -369 OFFCURVE",
"95 -308 OFFCURVE",
"101 -234 CURVE SMOOTH",
"107 -162 OFFCURVE",
"141 -125 OFFCURVE",
"199 -124 CURVE SMOOTH",
"229 -124 OFFCURVE",
"238 -144 OFFCURVE",
"238 -189 CURVE SMOOTH",
"238 -230 OFFCURVE",
"228 -241 OFFCURVE",
"215 -193 CURVE SMOOTH",
"211 -180 OFFCURVE",
"198 -169 OFFCURVE",
"186 -169 CURVE SMOOTH",
"168 -169 OFFCURVE",
"157 -185 OFFCURVE",
"152 -236 CURVE SMOOTH",
"147 -286 OFFCURVE",
"137 -335 OFFCURVE",
"192 -335 CURVE SMOOTH",
"208 -335 OFFCURVE",
"232 -319 OFFCURVE",
"241 -301 CURVE SMOOTH",
"249 -285 OFFCURVE",
"250 -275 OFFCURVE",
"250 -206 CURVE SMOOTH",
"250 -145 OFFCURVE",
"250 -140 OFFCURVE",
"253 -135 CURVE SMOOTH",
"259 -125 OFFCURVE",
"263 -123 OFFCURVE",
"289 -123 CURVE SMOOTH",
"321 -123 OFFCURVE",
"307 -116 OFFCURVE",
"304 -222 CURVE SMOOTH",
"303 -255 OFFCURVE",
"299 -283 OFFCURVE",
"301 -286 CURVE SMOOTH",
"326 -324 OFFCURVE",
"325 -305 OFFCURVE",
"349 -274 CURVE SMOOTH",
"392 -219 OFFCURVE",
"417 -188 OFFCURVE",
"432 -178 CURVE SMOOTH",
"439 -173 OFFCURVE",
"442 -172 OFFCURVE",
"451 -172 CURVE SMOOTH",
"478 -172 OFFCURVE",
"492 -190 OFFCURVE",
"492 -237 CURVE SMOOTH",
"492 -266 OFFCURVE",
"489 -308 OFFCURVE",
"493 -303 CURVE SMOOTH",
"497 -297 OFFCURVE",
"529 -247 OFFCURVE",
"552 -211 CURVE SMOOTH",
"570 -181 OFFCURVE",
"575 -177 OFFCURVE",
"591 -170 CURVE SMOOTH",
"607 -163 OFFCURVE",
"635 -167 OFFCURVE",
"645 -177 CURVE SMOOTH",
"662 -195 OFFCURVE",
"659 -275 OFFCURVE",
"640 -301 CURVE SMOOTH",
"632 -313 OFFCURVE",
"616 -319 OFFCURVE",
"601 -316 CURVE SMOOTH",
"591 -313 OFFCURVE",
"585 -307 OFFCURVE",
"585 -292 CURVE SMOOTH",
"585 -270 OFFCURVE",
"596 -280 OFFCURVE",
"596 -262 CURVE SMOOTH",
"596 -240 OFFCURVE",
"587 -246 OFFCURVE",
"575 -263 CURVE SMOOTH",
"555 -290 OFFCURVE",
"531 -334 OFFCURVE",
"504 -389 CURVE SMOOTH",
"493 -413 OFFCURVE",
"478 -446 OFFCURVE",
"465 -425 CURVE SMOOTH"
);
}
);
width = 756;
}
);
unicode = 0079;
},
{
glyphname = z;
lastChange = "2019-03-07 00:26:12 +0000";
layers = (
{
layerId = "47BBACC6-E520-4FE6-B315-B44B96E25748";
paths = (
{
closed = 1;
nodes = (
"537 -247 OFFCURVE",
"536 -245 OFFCURVE",
"536 -242 CURVE",
"536 -239 OFFCURVE",
"558 -178 OFFCURVE",
"585 -107 CURVE",
"633 24 LINE",
"626 37 LINE",
"615 58 OFFCURVE",
"589 96 OFFCURVE",
"578 108 CURVE",
"565 121 OFFCURVE",
"554 128 OFFCURVE",
"544 130 CURVE",
"536 131 OFFCURVE",
"534 135 OFFCURVE",
"534 148 CURVE",
"534 162 OFFCURVE",
"537 170 OFFCURVE",
"547 179 CURVE",
"555 188 OFFCURVE",
"570 194 OFFCURVE",
"582 195 CURVE",
"589 196 LINE",
"622 155 LINE",
"652 120 OFFCURVE",
"657 115 OFFCURVE",
"662 115 CURVE",
"667 114 OFFCURVE",
"668 115 OFFCURVE",
"673 126 CURVE",
"676 133 OFFCURVE",
"685 152 OFFCURVE",
"693 168 CURVE",
"708 198 OFFCURVE",
"721 218 OFFCURVE",
"728 222 CURVE",
"730 223 OFFCURVE",
"737 223 OFFCURVE",
"745 223 CURVE",
"759 222 LINE",
"761 215 LINE",
"764 208 LINE",
"742 179 LINE",
"723 153 OFFCURVE",
"719 147 OFFCURVE",
"709 124 CURVE",
"695 93 OFFCURVE",
"693 86 OFFCURVE",
"694 68 CURVE",
"694 56 OFFCURVE",
"696 52 OFFCURVE",
"704 35 CURVE",
"709 24 OFFCURVE",
"717 8 OFFCURVE",
"722 0 CURVE",
"731 -17 OFFCURVE",
"758 -81 OFFCURVE",
"770 -118 CURVE",
"782 -154 OFFCURVE",
"787 -172 OFFCURVE",
"788 -190 CURVE",
"789 -210 OFFCURVE",
"787 -215 OFFCURVE",
"773 -223 CURVE",
"762 -230 OFFCURVE",
"752 -231 OFFCURVE",
"749 -226 CURVE",
"748 -224 OFFCURVE",
"736 -194 OFFCURVE",
"723 -159 CURVE",
"703 -107 OFFCURVE",
"695 -89 OFFCURVE",
"678 -55 CURVE",
"666 -33 OFFCURVE",
"656 -14 OFFCURVE",
"655 -14 CURVE",
"655 -14 OFFCURVE",
"636 -65 OFFCURVE",
"615 -128 CURVE",
"576 -243 LINE",
"564 -244 LINE",
"557 -244 OFFCURVE",
"549 -246 OFFCURVE",
"546 -247 CURVE",
"540 -249 OFFCURVE",
"539 -250 OFFCURVE",
"537 -248 CURVE"
);
},
{
closed = 1;
nodes = (
"706 425 LINE",
"530 423 LINE",
"531 447 LINE SMOOTH",
"533 484 OFFCURVE",
"537 502 OFFCURVE",
"545 518 CURVE",
"551 533 OFFCURVE",
"552 542 OFFCURVE",
"548 549 CURVE",
"544 553 LINE",
"370 553 LINE",
"371 560 OFFCURVE",
"371 570 OFFCURVE",
"372 581 CURVE",
"374 617 OFFCURVE",
"379 640 OFFCURVE",
"386 657 CURVE",
"393 670 OFFCURVE",
"394 682 OFFCURVE",
"389 688 CURVE",
"386 693 LINE",
"330 691 LINE SMOOTH",
"274 689 OFFCURVE",
"182 689 OFFCURVE",
"153 690 CURVE",
"140 691 OFFCURVE",
"137 691 OFFCURVE",
"133 687 CURVE",
"125 682 OFFCURVE",
"122 674 OFFCURVE",
"120 661 CURVE",
"119 650 OFFCURVE",
"120 649 OFFCURVE",
"124 645 CURVE SMOOTH",
"133 636 OFFCURVE",
"145 635 OFFCURVE",
"194 640 CURVE SMOOTH",
"203 641 OFFCURVE",
"230 642 OFFCURVE",
"255 642 CURVE SMOOTH",
"296 642 OFFCURVE",
"299 642 OFFCURVE",
"299 639 CURVE SMOOTH",
"299 637 OFFCURVE",
"297 610 OFFCURVE",
"294 579 CURVE SMOOTH",
"290 529 LINE",
"290 527 OFFCURVE",
"289 526 OFFCURVE",
"289 524 CURVE",
"288 501 OFFCURVE",
"285 501 OFFCURVE",
"380 502 CURVE SMOOTH",
"460 504 LINE",
"458 493 LINE",
"458 486 OFFCURVE",
"456 460 OFFCURVE",
"454 433 CURVE SMOOTH",
"451 390 OFFCURVE",
"451 386 OFFCURVE",
"454 381 CURVE",
"458 372 OFFCURVE",
"469 372 OFFCURVE",
"520 374 CURVE SMOOTH",
"545 375 OFFCURVE",
"577 376 OFFCURVE",
"594 376 CURVE SMOOTH",
"622 376 LINE",
"622 371 LINE SMOOTH",
"622 366 OFFCURVE",
"618 342 OFFCURVE",
"617 314 CURVE",
"612 256 OFFCURVE",
"612 258 OFFCURVE",
"636 250 CURVE",
"652 242 OFFCURVE",
"658 243 OFFCURVE",
"668 252 CURVE",
"686 264 OFFCURVE",
"691 279 OFFCURVE",
"693 321 CURVE SMOOTH",
"695 361 OFFCURVE",
"699 381 OFFCURVE",
"710 397 CURVE",
"715 405 OFFCURVE",
"715 411 OFFCURVE",
"710 420 CURVE"
);
}
);
width = 908;
}
);
unicode = 007A;
},
{
glyphname = one;
lastChange = "2019-03-07 00:26:12 +0000";
layers = (
{
layerId = "47BBACC6-E520-4FE6-B315-B44B96E25748";
paths = (
{
closed = 1;
nodes = (
"341 -490 OFFCURVE",
"325 -475 OFFCURVE",
"316 -455 CURVE",
"308 -439 OFFCURVE",
"306 -409 OFFCURVE",
"307 -361 CURVE",
"308 -321 LINE",
"291 -321 LINE",
"274 -321 LINE",
"273 -336 LINE",
"272 -343 OFFCURVE",
"271 -367 OFFCURVE",
"271 -392 CURVE",
"269 -438 OFFCURVE",
"267 -450 OFFCURVE",
"260 -465 CURVE",
"252 -480 OFFCURVE",
"246 -483 OFFCURVE",
"220 -484 CURVE",
"200 -485 OFFCURVE",
"197 -484 OFFCURVE",
"195 -482 CURVE",
"195 -480 OFFCURVE",
"198 -463 OFFCURVE",
"203 -445 CURVE",
"212 -406 OFFCURVE",
"221 -354 OFFCURVE",
"221 -339 CURVE",
"221 -322 OFFCURVE",
"220 -321 OFFCURVE",
"180 -321 CURVE",
"144 -321 LINE",
"144 -326 LINE",
"144 -337 OFFCURVE",
"141 -339 OFFCURVE",
"125 -338 CURVE",
"105 -337 OFFCURVE",
"100 -333 OFFCURVE",
"100 -319 CURVE",
"100 -307 OFFCURVE",
"104 -298 OFFCURVE",
"110 -292 CURVE",
"115 -287 LINE",
"282 -287 LINE",
"468 -287 OFFCURVE",
"453 -285 OFFCURVE",
"455 -303 CURVE",
"457 -310 OFFCURVE",
"455 -313 OFFCURVE",
"452 -316 CURVE",
"447 -321 OFFCURVE",
"444 -321 OFFCURVE",
"413 -322 CURVE",
"379 -322 LINE",
"378 -344 LINE",
"375 -386 OFFCURVE",
"381 -432 OFFCURVE",
"395 -465 CURVE",
"403 -485 OFFCURVE",
"402 -491 OFFCURVE",
"392 -496 CURVE",
"381 -501 OFFCURVE",
"378 -502 OFFCURVE",
"367 -499 CURVE"
);
}
);
width = 556;
}
);
unicode = 0031;
},
{
glyphname = two;
lastChange = "2019-03-07 00:26:12 +0000";
layers = (
{
layerId = "47BBACC6-E520-4FE6-B315-B44B96E25748";
paths = (
{
closed = 1;
nodes = (
"161 -592 OFFCURVE",
"146 -583 OFFCURVE",
"129 -564 CURVE SMOOTH",
"91 -522 OFFCURVE",
"94 -472 OFFCURVE",
"116 -416 CURVE SMOOTH",
"149 -332 OFFCURVE",
"189 -279 OFFCURVE",
"236 -257 CURVE SMOOTH",
"253 -249 OFFCURVE",
"265 -243 OFFCURVE",
"284 -245 CURVE SMOOTH",
"312 -248 OFFCURVE",
"326 -255 OFFCURVE",
"344 -287 CURVE SMOOTH",
"350 -298 OFFCURVE",
"354 -312 OFFCURVE",
"354 -322 CURVE SMOOTH",
"354 -338 OFFCURVE",
"330 -366 OFFCURVE",
"299 -387 CURVE SMOOTH",
"272 -405 OFFCURVE",
"226 -426 OFFCURVE",
"182 -441 CURVE SMOOTH",
"167 -446 OFFCURVE",
"166 -447 OFFCURVE",
"161 -454 CURVE SMOOTH",
"155 -463 OFFCURVE",
"148 -496 OFFCURVE",
"147 -519 CURVE SMOOTH",
"146 -542 OFFCURVE",
"170 -560 OFFCURVE",
"189 -560 CURVE SMOOTH",
"200 -560 OFFCURVE",
"214 -549 OFFCURVE",
"222 -534 CURVE SMOOTH",
"228 -522 OFFCURVE",
"233 -499 OFFCURVE",
"238 -475 CURVE SMOOTH",
"239 -470 OFFCURVE",
"237 -469 OFFCURVE",
"232 -469 CURVE SMOOTH",
"224 -469 OFFCURVE",
"213 -477 OFFCURVE",
"186 -499 CURVE SMOOTH",
"170 -512 OFFCURVE",
"168 -514 OFFCURVE",
"162 -514 CURVE SMOOTH",
"154 -514 OFFCURVE",
"154 -514 OFFCURVE",
"154 -509 CURVE SMOOTH",
"154 -495 OFFCURVE",
"177 -469 OFFCURVE",
"201 -455 CURVE SMOOTH",
"231 -438 OFFCURVE",
"243 -435 OFFCURVE",
"259 -443 CURVE SMOOTH",
"276 -452 OFFCURVE",
"287 -466 OFFCURVE",
"291 -485 CURVE",
"293 -497 OFFCURVE",
"292 -518 OFFCURVE",
"288 -530 CURVE SMOOTH",
"281 -550 OFFCURVE",
"258 -574 OFFCURVE",
"236 -591 CURVE SMOOTH",
"227 -598 OFFCURVE",
"222 -602 OFFCURVE",
"197 -598 CURVE SMOOTH"
);
},
{
closed = 1;
nodes = (
"259 -378 OFFCURVE",
"301 -354 OFFCURVE",
"307 -316 CURVE SMOOTH",
"309 -304 OFFCURVE",
"299 -295 OFFCURVE",
"275 -291 CURVE SMOOTH",
"269 -290 OFFCURVE",
"269 -290 OFFCURVE",
"256 -305 CURVE SMOOTH",
"247 -316 OFFCURVE",
"193 -392 OFFCURVE",
"193 -397 CURVE SMOOTH",
"193 -400 OFFCURVE",
"200 -399 OFFCURVE",
"214 -394 CURVE SMOOTH"
);
}
);
width = 454;
}
);
unicode = 0032;
},
{
glyphname = three;
lastChange = "2019-03-07 00:26:12 +0000";
layers = (
{
layerId = "47BBACC6-E520-4FE6-B315-B44B96E25748";
paths = (
{
closed = 1;
nodes = (
"109 -546 OFFCURVE",
"108 -542 OFFCURVE",
"116 -539 CURVE",
"122 -537 OFFCURVE",
"136 -528 OFFCURVE",
"148 -518 CURVE SMOOTH",
"168 -502 OFFCURVE",
"171 -493 OFFCURVE",
"171 -449 CURVE SMOOTH",
"171 -394 OFFCURVE",
"157 -361 OFFCURVE",
"122 -317 CURVE",
"80 -269 OFFCURVE",
"102 -248 OFFCURVE",
"161 -280 CURVE SMOOTH",
"199 -301 OFFCURVE",
"290 -328 OFFCURVE",
"318 -328 CURVE SMOOTH",
"327 -328 OFFCURVE",
"336 -317 OFFCURVE",
"342 -303 CURVE",
"354 -271 OFFCURVE",
"374 -262 OFFCURVE",
"395 -281 CURVE SMOOTH",
"417 -301 OFFCURVE",
"424 -332 OFFCURVE",
"414 -354 CURVE",
"402 -376 OFFCURVE",
"345 -377 OFFCURVE",
"274 -359 CURVE SMOOTH",
"250 -353 OFFCURVE",
"225 -347 OFFCURVE",
"221 -347 CURVE SMOOTH",
"217 -347 OFFCURVE",
"221 -363 OFFCURVE",
"229 -383 CURVE",
"244 -427 OFFCURVE",
"247 -499 OFFCURVE",
"233 -526 CURVE",
"217 -553 OFFCURVE",
"144 -571 OFFCURVE",
"118 -552 CURVE"
);
},
{
closed = 1;
nodes = (
"109 -546 OFFCURVE",
"108 -542 OFFCURVE",
"116 -539 CURVE",
"122 -537 OFFCURVE",
"136 -528 OFFCURVE",
"148 -518 CURVE SMOOTH",
"168 -502 OFFCURVE",
"171 -493 OFFCURVE",
"171 -449 CURVE SMOOTH",
"171 -394 OFFCURVE",
"157 -361 OFFCURVE",
"122 -317 CURVE",
"80 -269 OFFCURVE",
"102 -248 OFFCURVE",
"161 -280 CURVE SMOOTH",
"199 -301 OFFCURVE",
"290 -328 OFFCURVE",
"318 -328 CURVE SMOOTH",
"327 -328 OFFCURVE",
"336 -317 OFFCURVE",
"342 -303 CURVE",
"354 -271 OFFCURVE",
"374 -262 OFFCURVE",
"395 -281 CURVE SMOOTH",
"417 -301 OFFCURVE",
"424 -332 OFFCURVE",
"414 -354 CURVE",
"402 -376 OFFCURVE",
"345 -377 OFFCURVE",
"274 -359 CURVE SMOOTH",
"250 -353 OFFCURVE",
"225 -347 OFFCURVE",
"221 -347 CURVE SMOOTH",
"217 -347 OFFCURVE",
"221 -363 OFFCURVE",
"229 -383 CURVE",
"244 -427 OFFCURVE",
"247 -499 OFFCURVE",
"233 -526 CURVE",
"217 -553 OFFCURVE",
"144 -571 OFFCURVE",
"118 -552 CURVE"
);
}
);
width = 518;
}
);
unicode = 0033;
},
{
glyphname = four;
lastChange = "2019-03-07 00:26:12 +0000";
layers = (
{
layerId = "47BBACC6-E520-4FE6-B315-B44B96E25748";
paths = (
{
closed = 1;
nodes = (
"99 -505 OFFCURVE",
"97 -500 OFFCURVE",
"106 -493 CURVE",
"110 -489 OFFCURVE",
"116 -488 OFFCURVE",
"140 -487 CURVE",
"168 -486 LINE",
"213 -375 LINE",
"237 -314 OFFCURVE",
"258 -262 OFFCURVE",
"260 -258 CURVE",
"262 -254 OFFCURVE",
"266 -252 OFFCURVE",
"271 -252 CURVE",
"278 -252 OFFCURVE",
"280 -254 OFFCURVE",
"286 -265 CURVE",
"289 -272 OFFCURVE",
"301 -305 OFFCURVE",
"312 -338 CURVE",
"349 -452 OFFCURVE",
"360 -481 OFFCURVE",
"379 -513 CURVE",
"384 -521 OFFCURVE",
"387 -530 OFFCURVE",
"387 -532 CURVE",
"386 -535 OFFCURVE",
"363 -535 OFFCURVE",
"258 -535 CURVE",
"131 -535 LINE",
"116 -521 LINE"
);
},
{
closed = 1;
nodes = (
"289 -468 OFFCURVE",
"273 -378 OFFCURVE",
"271 -377 CURVE",
"267 -376 OFFCURVE",
"229 -459 OFFCURVE",
"229 -467 CURVE",
"229 -474 LINE",
"258 -471 LINE",
"273 -471 OFFCURVE",
"287 -470 OFFCURVE",
"288 -470 CURVE"
);
}
);
width = 487;
}
);
unicode = 0034;
},
{
glyphname = five;
lastChange = "2019-03-07 00:26:12 +0000";
layers = (
{
layerId = "47BBACC6-E520-4FE6-B315-B44B96E25748";
paths = (
{
closed = 1;
nodes = (
"105 -531 OFFCURVE",
"102 -526 OFFCURVE",
"101 -522 CURVE",
"100 -517 OFFCURVE",
"101 -514 OFFCURVE",
"112 -499 CURVE",
"126 -479 OFFCURVE",
"138 -454 OFFCURVE",
"139 -444 CURVE",
"140 -439 OFFCURVE",
"136 -419 OFFCURVE",
"125 -373 CURVE",
"112 -322 OFFCURVE",
"109 -307 OFFCURVE",
"109 -296 CURVE",
"109 -282 LINE",
"117 -275 LINE",
"126 -266 OFFCURVE",
"145 -258 OFFCURVE",
"173 -252 CURVE",
"196 -248 OFFCURVE",
"197 -248 OFFCURVE",
"202 -253 CURVE",
"206 -257 LINE",
"201 -297 LINE",
"197 -326 OFFCURVE",
"196 -337 OFFCURVE",
"197 -341 CURVE",
"198 -343 OFFCURVE",
"199 -345 OFFCURVE",
"200 -345 CURVE",
"200 -345 OFFCURVE",
"232 -334 OFFCURVE",
"269 -321 CURVE",
"337 -297 OFFCURVE",
"339 -297 OFFCURVE",
"352 -297 CURVE",
"364 -298 OFFCURVE",
"365 -298 OFFCURVE",
"368 -303 CURVE",
"372 -310 OFFCURVE",
"376 -332 OFFCURVE",
"374 -341 CURVE",
"373 -348 OFFCURVE",
"365 -358 OFFCURVE",
"356 -362 CURVE",
"353 -364 OFFCURVE",
"344 -366 OFFCURVE",
"337 -367 CURVE",
"318 -369 OFFCURVE",
"212 -406 OFFCURVE",
"207 -412 CURVE",
"206 -412 OFFCURVE",
"206 -414 OFFCURVE",
"205 -416 CURVE",
"204 -420 OFFCURVE",
"205 -421 OFFCURVE",
"209 -422 CURVE",
"221 -427 OFFCURVE",
"259 -435 OFFCURVE",
"304 -443 CURVE",
"370 -453 OFFCURVE",
"371 -454 OFFCURVE",
"376 -460 CURVE",
"384 -471 OFFCURVE",
"386 -477 OFFCURVE",
"386 -492 CURVE",
"386 -505 OFFCURVE",
"386 -506 OFFCURVE",
"380 -511 CURVE",
"375 -516 OFFCURVE",
"373 -517 OFFCURVE",
"367 -517 CURVE",
"363 -517 OFFCURVE",
"328 -509 OFFCURVE",
"288 -500 CURVE",
"250 -491 OFFCURVE",
"218 -483 OFFCURVE",
"217 -483 CURVE",
"216 -483 OFFCURVE",
"215 -487 OFFCURVE",
"213 -492 CURVE",
"210 -505 OFFCURVE",
"197 -519 OFFCURVE",
"180 -527 CURVE",
"163 -535 OFFCURVE",
"149 -539 OFFCURVE",
"129 -539 CURVE",
"113 -539 OFFCURVE",
"112 -538 OFFCURVE",
"108 -533 CURVE"
);
}
);
width = 435;
}
);
unicode = 0035;
},
{
glyphname = six;
lastChange = "2019-03-07 00:26:12 +0000";
layers = (
{
layerId = "47BBACC6-E520-4FE6-B315-B44B96E25748";
paths = (
{
closed = 1;
nodes = (
"141 -509 OFFCURVE",
"139 -500 OFFCURVE",
"146 -479 CURVE",
"155 -449 OFFCURVE",
"182 -406 OFFCURVE",
"226 -353 CURVE",
"242 -334 LINE",
"226 -333 LINE",
"145 -326 OFFCURVE",
"110 -318 OFFCURVE",
"102 -304 CURVE",
"100 -300 OFFCURVE",
"100 -299 OFFCURVE",
"103 -296 CURVE",
"106 -292 OFFCURVE",
"119 -287 OFFCURVE",
"135 -282 CURVE",
"144 -280 OFFCURVE",
"146 -278 OFFCURVE",
"153 -269 CURVE",
"161 -258 OFFCURVE",
"174 -249 OFFCURVE",
"180 -249 CURVE",
"183 -249 OFFCURVE",
"186 -251 OFFCURVE",
"189 -257 CURVE",
"191 -261 OFFCURVE",
"195 -266 OFFCURVE",
"199 -268 CURVE",
"210 -276 OFFCURVE",
"237 -278 OFFCURVE",
"261 -273 CURVE",
"290 -267 OFFCURVE",
"358 -265 OFFCURVE",
"379 -270 CURVE",
"389 -272 OFFCURVE",
"393 -274 OFFCURVE",
"399 -280 CURVE",
"408 -290 OFFCURVE",
"409 -296 OFFCURVE",
"402 -310 CURVE",
"395 -324 OFFCURVE",
"360 -358 OFFCURVE",
"329 -382 CURVE",
"292 -410 OFFCURVE",
"247 -454 OFFCURVE",
"247 -462 CURVE",
"247 -463 OFFCURVE",
"253 -461 OFFCURVE",
"259 -458 CURVE",
"285 -446 OFFCURVE",
"313 -443 OFFCURVE",
"336 -449 CURVE",
"358 -454 OFFCURVE",
"381 -471 OFFCURVE",
"401 -493 CURVE",
"411 -504 OFFCURVE",
"426 -525 OFFCURVE",
"426 -527 CURVE",
"426 -528 OFFCURVE",
"422 -530 OFFCURVE",
"417 -533 CURVE",
"406 -538 OFFCURVE",
"398 -538 OFFCURVE",
"356 -535 CURVE",
"328 -533 LINE",
"311 -524 LINE",
"271 -502 OFFCURVE",
"268 -502 OFFCURVE",
"210 -522 CURVE",
"186 -530 OFFCURVE",
"165 -537 OFFCURVE",
"164 -537 CURVE",
"163 -537 OFFCURVE",
"159 -533 OFFCURVE",
"155 -529 CURVE"
);
}
);
width = 526;
}
);
unicode = 0036;
},
{
glyphname = seven;
lastChange = "2019-03-07 00:26:12 +0000";
layers = (
{
layerId = "47BBACC6-E520-4FE6-B315-B44B96E25748";
paths = (
{
closed = 1;
nodes = (
"204 -429 OFFCURVE",
"180 -377 OFFCURVE",
"180 -334 CURVE SMOOTH",
"180 -302 LINE",
"156 -325 LINE",
"128 -350 OFFCURVE",
"100 -346 OFFCURVE",
"100 -316 CURVE SMOOTH",
"100 -291 OFFCURVE",
"158 -255 OFFCURVE",
"198 -255 CURVE SMOOTH",
"227 -255 OFFCURVE",
"228 -257 OFFCURVE",
"239 -319 CURVE SMOOTH",
"253 -399 OFFCURVE",
"276 -465 OFFCURVE",
"283 -445 CURVE SMOOTH",
"317 -347 OFFCURVE",
"336 -301 OFFCURVE",
"356 -280 CURVE SMOOTH",
"383 -251 OFFCURVE",
"417 -250 OFFCURVE",
"433 -276 CURVE SMOOTH",
"441 -289 OFFCURVE",
"435 -300 OFFCURVE",
"407 -329 CURVE",
"386 -349 OFFCURVE",
"353 -402 OFFCURVE",
"332 -445 CURVE SMOOTH",
"311 -488 OFFCURVE",
"292 -525 OFFCURVE",
"288 -525 CURVE SMOOTH",
"284 -525 OFFCURVE",
"265 -506 OFFCURVE",
"246 -482 CURVE SMOOTH"
);
},
{
closed = 1;
nodes = (
"204 -429 OFFCURVE",
"180 -377 OFFCURVE",
"180 -334 CURVE SMOOTH",
"180 -302 LINE",
"156 -325 LINE",
"128 -350 OFFCURVE",
"100 -346 OFFCURVE",
"100 -316 CURVE SMOOTH",
"100 -291 OFFCURVE",
"158 -255 OFFCURVE",
"198 -255 CURVE SMOOTH",
"227 -255 OFFCURVE",
"228 -257 OFFCURVE",
"239 -319 CURVE SMOOTH",
"253 -399 OFFCURVE",
"276 -465 OFFCURVE",
"283 -445 CURVE SMOOTH",
"317 -347 OFFCURVE",
"336 -301 OFFCURVE",
"356 -280 CURVE SMOOTH",
"383 -251 OFFCURVE",
"417 -250 OFFCURVE",
"433 -276 CURVE SMOOTH",
"441 -289 OFFCURVE",
"435 -300 OFFCURVE",
"407 -329 CURVE",
"386 -349 OFFCURVE",
"353 -402 OFFCURVE",
"332 -445 CURVE SMOOTH",
"311 -488 OFFCURVE",
"292 -525 OFFCURVE",
"288 -525 CURVE SMOOTH",
"284 -525 OFFCURVE",
"265 -506 OFFCURVE",
"246 -482 CURVE SMOOTH"
);
}
);
width = 536;
}
);
unicode = 0037;
},
{
glyphname = comma;
lastChange = "2019-03-07 00:26:12 +0000";
layers = (
{
layerId = "47BBACC6-E520-4FE6-B315-B44B96E25748";
paths = (
{
closed = 1;
nodes = (
"123 -247 OFFCURVE",
"122 -245 OFFCURVE",
"122 -242 CURVE",
"122 -239 OFFCURVE",
"144 -178 OFFCURVE",
"171 -107 CURVE",
"219 24 LINE",
"212 37 LINE",
"201 58 OFFCURVE",
"175 96 OFFCURVE",
"164 108 CURVE",
"151 121 OFFCURVE",
"140 128 OFFCURVE",
"130 130 CURVE",
"122 131 OFFCURVE",
"120 135 OFFCURVE",
"120 148 CURVE",
"120 162 OFFCURVE",
"123 170 OFFCURVE",
"133 179 CURVE",
"141 188 OFFCURVE",
"156 194 OFFCURVE",
"168 195 CURVE",
"175 196 LINE",
"208 155 LINE",
"238 120 OFFCURVE",
"243 115 OFFCURVE",
"248 115 CURVE",
"253 114 OFFCURVE",
"254 115 OFFCURVE",
"259 126 CURVE",
"262 133 OFFCURVE",
"271 152 OFFCURVE",
"279 168 CURVE",
"294 198 OFFCURVE",
"307 218 OFFCURVE",
"314 222 CURVE",
"316 223 OFFCURVE",
"323 223 OFFCURVE",
"331 223 CURVE",
"345 222 LINE",
"347 215 LINE",
"350 208 LINE",
"328 179 LINE",
"309 153 OFFCURVE",
"305 147 OFFCURVE",
"295 124 CURVE",
"281 93 OFFCURVE",
"279 86 OFFCURVE",
"280 68 CURVE",
"280 56 OFFCURVE",
"282 52 OFFCURVE",
"290 35 CURVE",
"295 24 OFFCURVE",
"303 8 OFFCURVE",
"308 0 CURVE",
"317 -17 OFFCURVE",
"344 -81 OFFCURVE",
"356 -118 CURVE",
"368 -154 OFFCURVE",
"373 -172 OFFCURVE",
"374 -190 CURVE",
"375 -210 OFFCURVE",
"373 -215 OFFCURVE",
"359 -223 CURVE",
"348 -230 OFFCURVE",
"338 -231 OFFCURVE",
"335 -226 CURVE",
"334 -224 OFFCURVE",
"322 -194 OFFCURVE",
"309 -159 CURVE",
"289 -107 OFFCURVE",
"281 -89 OFFCURVE",
"264 -55 CURVE",
"252 -33 OFFCURVE",
"242 -14 OFFCURVE",
"241 -14 CURVE",
"241 -14 OFFCURVE",
"222 -65 OFFCURVE",
"201 -128 CURVE",
"162 -243 LINE",
"150 -244 LINE",
"143 -244 OFFCURVE",
"135 -246 OFFCURVE",
"132 -247 CURVE",
"126 -249 OFFCURVE",
"125 -250 OFFCURVE",
"123 -248 CURVE"
);
},
{
closed = 1;
nodes = (
"164 411 OFFCURVE",
"164 405 OFFCURVE",
"169 397 CURVE",
"180 381 OFFCURVE",
"184 361 OFFCURVE",
"186 321 CURVE SMOOTH",
"188 279 OFFCURVE",
"193 264 OFFCURVE",
"211 252 CURVE",
"221 243 OFFCURVE",
"227 242 OFFCURVE",
"243 250 CURVE",
"267 258 OFFCURVE",
"267 256 OFFCURVE",
"262 314 CURVE",
"261 342 OFFCURVE",
"257 366 OFFCURVE",
"257 371 CURVE SMOOTH",
"257 376 LINE",
"285 376 LINE SMOOTH",
"302 376 OFFCURVE",
"334 375 OFFCURVE",
"359 374 CURVE SMOOTH",
"410 372 OFFCURVE",
"421 372 OFFCURVE",
"425 381 CURVE",
"428 386 OFFCURVE",
"428 390 OFFCURVE",
"425 433 CURVE SMOOTH",
"423 460 OFFCURVE",
"421 486 OFFCURVE",
"421 493 CURVE",
"419 504 LINE",
"499 502 LINE SMOOTH",
"594 500 OFFCURVE",
"591 501 OFFCURVE",
"590 524 CURVE",
"590 526 OFFCURVE",
"589 527 OFFCURVE",
"589 529 CURVE",
"585 579 LINE SMOOTH",
"583 610 OFFCURVE",
"580 637 OFFCURVE",
"580 639 CURVE SMOOTH",
"580 642 OFFCURVE",
"583 642 OFFCURVE",
"624 642 CURVE SMOOTH",
"649 642 OFFCURVE",
"676 641 OFFCURVE",
"685 640 CURVE SMOOTH",
"734 635 OFFCURVE",
"746 636 OFFCURVE",
"755 645 CURVE SMOOTH",
"759 649 OFFCURVE",
"760 650 OFFCURVE",
"759 661 CURVE",
"757 674 OFFCURVE",
"754 682 OFFCURVE",
"746 687 CURVE",
"742 691 OFFCURVE",
"739 691 OFFCURVE",
"726 690 CURVE",
"697 689 OFFCURVE",
"605 689 OFFCURVE",
"549 691 CURVE SMOOTH",
"493 693 LINE",
"490 688 LINE",
"485 682 OFFCURVE",
"486 670 OFFCURVE",
"493 657 CURVE",
"500 640 OFFCURVE",
"505 617 OFFCURVE",
"507 581 CURVE",
"508 570 OFFCURVE",
"508 560 OFFCURVE",
"509 553 CURVE",
"335 553 LINE",
"331 549 LINE",
"327 542 OFFCURVE",
"328 533 OFFCURVE",
"334 518 CURVE",
"342 502 OFFCURVE",
"346 484 OFFCURVE",
"348 447 CURVE SMOOTH",
"349 423 LINE",
"173 425 LINE",
"169 420 LINE"
);
}
);
width = 879;
}
);
unicode = 002C;
},
{
glyphname = exclam;
lastChange = "2019-03-07 00:26:12 +0000";
layers = (
{
layerId = "47BBACC6-E520-4FE6-B315-B44B96E25748";
paths = (
{
closed = 1;
nodes = (
"-315 -24 OFFCURVE",
"-331 -9 OFFCURVE",
"-339 11 CURVE",
"-348 27 OFFCURVE",
"-350 57 OFFCURVE",
"-348 105 CURVE",
"-347 145 LINE",
"-365 145 LINE",
"-382 145 LINE",
"-383 130 LINE",
"-383 123 OFFCURVE",
"-384 99 OFFCURVE",
"-386 74 CURVE",
"-387 28 OFFCURVE",
"-388 16 OFFCURVE",
"-395 1 CURVE",
"-404 -14 OFFCURVE",
"-410 -17 OFFCURVE",
"-435 -18 CURVE",
"-455 -19 OFFCURVE",
"-458 -18 OFFCURVE",
"-460 -16 CURVE",
"-460 -14 OFFCURVE",
"-457 3 OFFCURVE",
"-452 21 CURVE",
"-444 60 OFFCURVE",
"-434 112 OFFCURVE",
"-434 127 CURVE",
"-434 144 OFFCURVE",
"-437 145 OFFCURVE",
"-477 145 CURVE",
"-511 145 LINE",
"-511 140 LINE",
"-511 129 OFFCURVE",
"-514 127 OFFCURVE",
"-530 128 CURVE",
"-550 129 OFFCURVE",
"-555 133 OFFCURVE",
"-555 147 CURVE",
"-555 159 OFFCURVE",
"-551 168 OFFCURVE",
"-545 174 CURVE",
"-540 179 LINE",
"-375 179 LINE",
"-187 179 OFFCURVE",
"-202 181 OFFCURVE",
"-200 163 CURVE",
"-198 156 OFFCURVE",
"-200 153 OFFCURVE",
"-203 150 CURVE",
"-208 145 OFFCURVE",
"-211 145 OFFCURVE",
"-242 144 CURVE",
"-276 144 LINE",
"-279 122 LINE",
"-281 80 OFFCURVE",
"-275 34 OFFCURVE",
"-260 1 CURVE",
"-252 -19 OFFCURVE",
"-253 -25 OFFCURVE",
"-263 -30 CURVE",
"-275 -35 OFFCURVE",
"-279 -36 OFFCURVE",
"-290 -33 CURVE"
);
}
);
width = 0;
}
);
unicode = 0021;
},
{
glyphname = slash;
lastChange = "2019-03-07 00:26:12 +0000";
layers = (
{
layerId = "47BBACC6-E520-4FE6-B315-B44B96E25748";
paths = (
{
closed = 1;
nodes = (
"364 -179 OFFCURVE",
"343 -148 OFFCURVE",
"337 -110 CURVE",
"335 -99 OFFCURVE",
"333 -61 OFFCURVE",
"332 -24 CURVE",
"329 40 OFFCURVE",
"329 42 OFFCURVE",
"323 43 CURVE",
"317 44 OFFCURVE",
"316 42 OFFCURVE",
"315 21 CURVE",
"314 8 OFFCURVE",
"313 -29 OFFCURVE",
"313 -62 CURVE",
"313 -121 LINE",
"304 -135 LINE",
"293 -152 OFFCURVE",
"273 -165 OFFCURVE",
"253 -167 CURVE",
"230 -170 OFFCURVE",
"227 -161 OFFCURVE",
"237 -118 CURVE",
"247 -83 OFFCURVE",
"255 -19 OFFCURVE",
"255 11 CURVE",
"255 34 OFFCURVE",
"254 38 OFFCURVE",
"250 39 CURVE",
"239 42 OFFCURVE",
"206 47 OFFCURVE",
"204 45 CURVE",
"202 44 OFFCURVE",
"198 38 OFFCURVE",
"193 30 CURVE",
"186 19 OFFCURVE",
"184 17 OFFCURVE",
"175 17 CURVE",
"166 17 OFFCURVE",
"163 19 OFFCURVE",
"157 29 CURVE",
"149 39 OFFCURVE",
"149 43 OFFCURVE",
"150 63 CURVE",
"151 82 OFFCURVE",
"152 87 OFFCURVE",
"159 94 CURVE",
"166 102 LINE",
"309 100 LINE",
"461 98 OFFCURVE",
"469 98 OFFCURVE",
"476 84 CURVE",
"482 73 OFFCURVE",
"480 51 OFFCURVE",
"472 42 CURVE",
"466 34 OFFCURVE",
"465 34 OFFCURVE",
"446 38 CURVE",
"433 41 OFFCURVE",
"425 41 OFFCURVE",
"420 39 CURVE",
"411 36 LINE",
"411 -15 LINE",
"412 -70 OFFCURVE",
"414 -93 OFFCURVE",
"426 -137 CURVE",
"434 -163 OFFCURVE",
"434 -165 OFFCURVE",
"429 -173 CURVE",
"424 -180 OFFCURVE",
"408 -189 OFFCURVE",
"400 -189 CURVE",
"398 -189 OFFCURVE",
"392 -187 OFFCURVE",
"387 -186 CURVE"
);
},
{
closed = 1;
nodes = (
"413 137 OFFCURVE",
"391 150 OFFCURVE",
"376 164 CURVE",
"351 186 OFFCURVE",
"313 242 OFFCURVE",
"307 262 CURVE",
"305 272 LINE",
"291 247 LINE",
"283 232 OFFCURVE",
"272 210 OFFCURVE",
"264 196 CURVE",
"251 170 OFFCURVE",
"241 160 OFFCURVE",
"226 157 CURVE",
"216 155 OFFCURVE",
"199 162 OFFCURVE",
"196 169 CURVE",
"195 171 OFFCURVE",
"201 188 OFFCURVE",
"210 206 CURVE",
"250 290 OFFCURVE",
"271 347 OFFCURVE",
"275 380 CURVE",
"277 399 OFFCURVE",
"270 426 OFFCURVE",
"254 457 CURVE",
"236 493 OFFCURVE",
"221 506 OFFCURVE",
"187 514 CURVE",
"171 517 OFFCURVE",
"169 519 OFFCURVE",
"166 528 CURVE",
"164 537 OFFCURVE",
"164 539 OFFCURVE",
"175 548 CURVE",
"193 563 OFFCURVE",
"205 568 OFFCURVE",
"222 566 CURVE",
"253 561 OFFCURVE",
"284 535 OFFCURVE",
"311 489 CURVE",
"326 464 OFFCURVE",
"336 435 OFFCURVE",
"369 324 CURVE",
"393 242 OFFCURVE",
"404 221 OFFCURVE",
"443 191 CURVE",
"456 180 OFFCURVE",
"465 170 OFFCURVE",
"468 163 CURVE",
"474 150 OFFCURVE",
"474 150 OFFCURVE",
"467 140 CURVE",
"460 127 OFFCURVE",
"454 127 OFFCURVE",
"430 133 CURVE"
);
}
);
width = 579;
}
);
unicode = 002F;
},
{
glyphname = quotedblleft;
lastChange = "2019-03-07 00:26:12 +0000";
layers = (
{
layerId = "47BBACC6-E520-4FE6-B315-B44B96E25748";
paths = (
{
closed = 1;
nodes = (
"966 -117 OFFCURVE",
"967 -116 OFFCURVE",
"968 -115 CURVE",
"969 -115 OFFCURVE",
"990 -107 OFFCURVE",
"1016 -98 CURVE",
"1063 -80 LINE",
"1076 -66 LINE",
"1089 -53 LINE",
"1096 -34 LINE",
"1104 -14 LINE",
"1100 10 LINE",
"1098 23 OFFCURVE",
"1096 37 OFFCURVE",
"1095 42 CURVE",
"1092 50 OFFCURVE",
"1092 55 OFFCURVE",
"1094 66 CURVE",
"1096 74 OFFCURVE",
"1097 76 OFFCURVE",
"1108 90 CURVE",
"1114 98 OFFCURVE",
"1120 105 OFFCURVE",
"1121 106 CURVE",
"1121 107 OFFCURVE",
"1131 109 OFFCURVE",
"1143 112 CURVE",
"1164 117 LINE",
"1186 115 LINE",
"1199 115 OFFCURVE",
"1210 113 OFFCURVE",
"1210 113 CURVE",
"1214 111 OFFCURVE",
"1209 95 OFFCURVE",
"1202 85 CURVE",
"1200 80 OFFCURVE",
"1198 75 OFFCURVE",
"1196 66 CURVE",
"1193 52 LINE",
"1197 35 LINE",
"1199 26 OFFCURVE",
"1202 13 OFFCURVE",
"1202 6 CURVE",
"1204 -6 LINE",
"1194 -25 LINE",
"1185 -44 OFFCURVE",
"1184 -45 OFFCURVE",
"1171 -58 CURVE",
"1159 -71 OFFCURVE",
"1156 -73 OFFCURVE",
"1139 -83 CURVE",
"1120 -93 LINE",
"1087 -101 LINE",
"1061 -106 OFFCURVE",
"1043 -109 OFFCURVE",
"1011 -113 CURVE",
"963 -120 OFFCURVE",
"968 -119 OFFCURVE",
"967 -117 CURVE"
);
},
{
closed = 1;
nodes = (
"507 -71 OFFCURVE",
"493 -69 OFFCURVE",
"491 -68 CURVE",
"490 -67 OFFCURVE",
"470 -53 OFFCURVE",
"448 -37 CURVE",
"400 -2 OFFCURVE",
"389 8 OFFCURVE",
"371 37 CURVE",
"365 46 OFFCURVE",
"359 55 OFFCURVE",
"358 55 CURVE",
"358 56 OFFCURVE",
"354 50 OFFCURVE",
"349 41 CURVE",
"344 31 OFFCURVE",
"333 16 OFFCURVE",
"315 -8 CURVE",
"291 -40 OFFCURVE",
"289 -42 OFFCURVE",
"278 -51 CURVE",
"266 -59 LINE",
"233 -53 LINE",
"215 -50 OFFCURVE",
"200 -47 OFFCURVE",
"199 -47 CURVE",
"198 -46 OFFCURVE",
"219 -21 OFFCURVE",
"245 9 CURVE",
"298 71 OFFCURVE",
"302 76 OFFCURVE",
"314 110 CURVE",
"323 133 LINE",
"313 151 LINE",
"300 179 OFFCURVE",
"292 189 OFFCURVE",
"262 210 CURVE",
"240 226 OFFCURVE",
"239 226 OFFCURVE",
"225 230 CURVE",
"217 232 OFFCURVE",
"197 236 OFFCURVE",
"181 238 CURVE",
"165 241 OFFCURVE",
"151 243 OFFCURVE",
"150 244 CURVE",
"149 245 OFFCURVE",
"154 248 OFFCURVE",
"166 255 CURVE",
"184 264 LINE",
"222 262 LINE",
"261 261 OFFCURVE",
"261 261 OFFCURVE",
"276 256 CURVE",
"301 248 OFFCURVE",
"315 240 OFFCURVE",
"342 220 CURVE",
"360 205 OFFCURVE",
"367 199 OFFCURVE",
"373 191 CURVE",
"378 185 OFFCURVE",
"401 149 OFFCURVE",
"424 112 CURVE",
"466 44 LINE",
"466 74 LINE",
"466 91 OFFCURVE",
"467 105 OFFCURVE",
"468 106 CURVE",
"469 107 OFFCURVE",
"711 78 OFFCURVE",
"713 76 CURVE",
"715 74 OFFCURVE",
"710 50 OFFCURVE",
"707 49 CURVE",
"707 48 OFFCURVE",
"667 52 OFFCURVE",
"620 58 CURVE",
"572 63 OFFCURVE",
"533 67 OFFCURVE",
"532 66 CURVE",
"527 65 OFFCURVE",
"527 50 OFFCURVE",
"532 17 CURVE",
"534 0 OFFCURVE",
"537 -16 OFFCURVE",
"537 -18 CURVE",
"537 -20 OFFCURVE",
"543 -25 OFFCURVE",
"564 -40 CURVE",
"589 -59 OFFCURVE",
"596 -65 OFFCURVE",
"596 -72 CURVE",
"597 -75 OFFCURVE",
"596 -75 OFFCURVE",
"585 -76 CURVE",
"566 -78 OFFCURVE",
"555 -77 OFFCURVE",
"524 -73 CURVE"
);
},
{
closed = 1;
nodes = (
"709 -46 OFFCURVE",
"701 -41 OFFCURVE",
"700 -40 CURVE",
"699 -39 OFFCURVE",
"697 -32 OFFCURVE",
"696 -18 CURVE",
"693 3 LINE",
"700 20 LINE",
"707 35 OFFCURVE",
"707 36 OFFCURVE",
"728 62 CURVE",
"758 97 OFFCURVE",
"772 118 OFFCURVE",
"777 135 CURVE",
"779 142 OFFCURVE",
"781 148 OFFCURVE",
"781 148 CURVE",
"780 148 OFFCURVE",
"755 150 OFFCURVE",
"725 153 CURVE",
"669 158 OFFCURVE",
"590 168 OFFCURVE",
"588 171 CURVE",
"587 172 OFFCURVE",
"585 178 OFFCURVE",
"584 185 CURVE",
"582 197 OFFCURVE",
"582 199 OFFCURVE",
"584 200 CURVE",
"587 203 OFFCURVE",
"607 204 OFFCURVE",
"652 205 CURVE",
"694 206 OFFCURVE",
"706 205 OFFCURVE",
"788 201 CURVE",
"877 195 LINE",
"890 189 LINE",
"897 185 OFFCURVE",
"907 178 OFFCURVE",
"913 174 CURVE",
"923 166 LINE",
"922 158 LINE",
"922 153 OFFCURVE",
"921 148 OFFCURVE",
"920 147 CURVE",
"919 147 OFFCURVE",
"910 144 OFFCURVE",
"901 142 CURVE",
"883 138 LINE",
"858 139 LINE",
"841 141 OFFCURVE",
"833 141 OFFCURVE",
"832 140 CURVE",
"832 139 OFFCURVE",
"826 124 OFFCURVE",
"821 107 CURVE",
"815 89 OFFCURVE",
"807 68 OFFCURVE",
"803 59 CURVE",
"796 42 OFFCURVE",
"796 42 OFFCURVE",
"795 25 CURVE",
"795 10 OFFCURVE",
"795 8 OFFCURVE",
"798 3 CURVE",
"799 0 OFFCURVE",
"801 -3 OFFCURVE",
"801 -3 CURVE",
"802 -3 OFFCURVE",
"808 -1 OFFCURVE",
"814 1 CURVE",
"826 3 OFFCURVE",
"829 5 OFFCURVE",
"868 30 CURVE",
"907 55 OFFCURVE",
"910 57 OFFCURVE",
"922 70 CURVE",
"933 82 OFFCURVE",
"935 83 OFFCURVE",
"962 99 CURVE",
"991 116 LINE",
"1010 119 LINE",
"1030 122 LINE",
"1046 117 LINE",
"1055 114 OFFCURVE",
"1064 111 OFFCURVE",
"1066 110 CURVE",
"1068 109 OFFCURVE",
"1070 104 OFFCURVE",
"1073 91 CURVE",
"1078 73 OFFCURVE",
"1078 73 OFFCURVE",
"1077 61 CURVE",
"1070 11 OFFCURVE",
"1037 -29 OFFCURVE",
"989 -44 CURVE",
"974 -49 OFFCURVE",
"959 -51 OFFCURVE",
"940 -50 CURVE",
"924 -50 LINE",
"910 -43 LINE",
"902 -39 OFFCURVE",
"895 -35 OFFCURVE",
"894 -34 CURVE",
"892 -32 OFFCURVE",
"889 -25 OFFCURVE",
"886 -17 CURVE",
"884 -9 OFFCURVE",
"881 -1 OFFCURVE",
"880 -1 CURVE",
"880 0 OFFCURVE",
"875 -1 OFFCURVE",
"868 -3 CURVE",
"860 -5 OFFCURVE",
"854 -8 OFFCURVE",
"844 -14 CURVE",
"822 -27 OFFCURVE",
"772 -50 OFFCURVE",
"752 -55 CURVE",
"744 -57 OFFCURVE",
"736 -59 OFFCURVE",
"735 -59 CURVE",
"734 -59 OFFCURVE",
"726 -55 OFFCURVE",
"717 -50 CURVE"
);
},
{
closed = 1;
nodes = (
"1007 0 OFFCURVE",
"1014 7 OFFCURVE",
"1022 16 CURVE",
"1034 29 LINE",
"1039 48 LINE",
"1041 59 OFFCURVE",
"1044 73 OFFCURVE",
"1045 81 CURVE",
"1047 95 LINE",
"1041 96 LINE",
"1035 98 LINE",
"1010 73 LINE",
"984 48 LINE",
"977 32 LINE",
"970 15 OFFCURVE",
"969 12 OFFCURVE",
"971 -5 CURVE",
"972 -13 OFFCURVE",
"972 -13 OFFCURVE",
"976 -14 CURVE",
"983 -16 OFFCURVE",
"984 -16 OFFCURVE",
"997 -7 CURVE"
);
}
);
width = 1361;
}
);
unicode = 201C;
},
{
glyphname = dollar;
lastChange = "2019-03-07 00:26:12 +0000";
layers = (
{
layerId = "47BBACC6-E520-4FE6-B315-B44B96E25748";
paths = (
{
closed = 1;
nodes = (
"-515 -39 OFFCURVE",
"-517 -34 OFFCURVE",
"-508 -27 CURVE",
"-504 -23 OFFCURVE",
"-498 -22 OFFCURVE",
"-474 -21 CURVE",
"-446 -20 LINE",
"-401 91 LINE",
"-377 152 OFFCURVE",
"-356 204 OFFCURVE",
"-354 208 CURVE",
"-352 212 OFFCURVE",
"-348 214 OFFCURVE",
"-343 214 CURVE",
"-336 214 OFFCURVE",
"-334 212 OFFCURVE",
"-328 201 CURVE",
"-325 194 OFFCURVE",
"-313 161 OFFCURVE",
"-302 128 CURVE",
"-265 14 OFFCURVE",
"-254 -15 OFFCURVE",
"-235 -47 CURVE",
"-230 -55 OFFCURVE",
"-227 -64 OFFCURVE",
"-227 -66 CURVE",
"-228 -69 OFFCURVE",
"-251 -69 OFFCURVE",
"-356 -69 CURVE",
"-483 -69 LINE",
"-498 -55 LINE"
);
},
{
closed = 1;
nodes = (
"-325 -2 OFFCURVE",
"-341 88 OFFCURVE",
"-343 89 CURVE",
"-347 90 OFFCURVE",
"-385 7 OFFCURVE",
"-385 -1 CURVE",
"-385 -8 LINE",
"-356 -5 LINE",
"-341 -5 OFFCURVE",
"-327 -4 OFFCURVE",
"-326 -4 CURVE"
);
}
);
width = 0;
}
);
unicode = 0024;
},
{
glyphname = asciitilde;
lastChange = "2019-03-07 00:26:12 +0000";
layers = (
{
layerId = "47BBACC6-E520-4FE6-B315-B44B96E25748";
paths = (
{
closed = 1;
nodes = (
"-16 345 OFFCURVE",
"4 367 OFFCURVE",
"20 353 CURVE",
"40 337 OFFCURVE",
"34 321 OFFCURVE",
"-11 277 CURVE SMOOTH",
"-70 220 OFFCURVE",
"-79 220 OFFCURVE",
"-47 283 CURVE SMOOTH"
);
}
);
width = 0;
}
);
unicode = 007E;
},
{
glyphname = percent;
lastChange = "2019-03-07 00:26:12 +0000";
layers = (
{
layerId = "47BBACC6-E520-4FE6-B315-B44B96E25748";
paths = (
{
closed = 1;
nodes = (
"-490 -65 OFFCURVE",
"-493 -60 OFFCURVE",
"-494 -56 CURVE",
"-495 -51 OFFCURVE",
"-494 -48 OFFCURVE",
"-483 -33 CURVE",
"-469 -13 OFFCURVE",
"-457 12 OFFCURVE",
"-456 22 CURVE",
"-455 27 OFFCURVE",
"-459 47 OFFCURVE",
"-470 93 CURVE",
"-483 144 OFFCURVE",
"-486 159 OFFCURVE",
"-486 170 CURVE",
"-486 184 LINE",
"-478 191 LINE",
"-469 200 OFFCURVE",
"-450 208 OFFCURVE",
"-422 214 CURVE",
"-399 218 OFFCURVE",
"-398 218 OFFCURVE",
"-393 213 CURVE",
"-389 209 LINE",
"-394 169 LINE",
"-398 140 OFFCURVE",
"-399 129 OFFCURVE",
"-398 125 CURVE",
"-397 123 OFFCURVE",
"-396 121 OFFCURVE",
"-395 121 CURVE",
"-395 121 OFFCURVE",
"-363 132 OFFCURVE",
"-326 145 CURVE",
"-258 169 OFFCURVE",
"-256 169 OFFCURVE",
"-243 169 CURVE",
"-231 168 OFFCURVE",
"-230 168 OFFCURVE",
"-227 163 CURVE",
"-223 156 OFFCURVE",
"-219 134 OFFCURVE",
"-221 125 CURVE",
"-222 118 OFFCURVE",
"-230 108 OFFCURVE",
"-239 104 CURVE",
"-242 102 OFFCURVE",
"-251 100 OFFCURVE",
"-258 99 CURVE",
"-277 97 OFFCURVE",
"-383 60 OFFCURVE",
"-388 54 CURVE",
"-389 54 OFFCURVE",
"-389 52 OFFCURVE",
"-390 50 CURVE",
"-391 46 OFFCURVE",
"-390 45 OFFCURVE",
"-386 44 CURVE",
"-374 39 OFFCURVE",
"-336 31 OFFCURVE",
"-291 23 CURVE",
"-225 13 OFFCURVE",
"-224 12 OFFCURVE",
"-219 6 CURVE",
"-211 -5 OFFCURVE",
"-209 -11 OFFCURVE",
"-209 -26 CURVE",
"-209 -39 OFFCURVE",
"-209 -40 OFFCURVE",
"-215 -45 CURVE",
"-220 -50 OFFCURVE",
"-222 -51 OFFCURVE",
"-228 -51 CURVE",
"-232 -51 OFFCURVE",
"-267 -43 OFFCURVE",
"-307 -34 CURVE",
"-345 -25 OFFCURVE",
"-377 -17 OFFCURVE",
"-378 -17 CURVE",
"-379 -17 OFFCURVE",
"-380 -21 OFFCURVE",
"-382 -26 CURVE",
"-385 -39 OFFCURVE",
"-398 -53 OFFCURVE",
"-415 -61 CURVE",
"-432 -69 OFFCURVE",
"-446 -73 OFFCURVE",
"-466 -73 CURVE",
"-482 -73 OFFCURVE",
"-483 -72 OFFCURVE",
"-487 -67 CURVE"
);
}
);
width = 0;
}
);
unicode = 0025;
},
{
glyphname = bar;
lastChange = "2019-03-07 00:26:12 +0000";
layers = (
{
layerId = "47BBACC6-E520-4FE6-B315-B44B96E25748";
paths = (
{
closed = 1;
nodes = (
"-366 319 OFFCURVE",
"-368 354 CURVE SMOOTH",
"-368 418 OFFCURVE",
"-366 503 OFFCURVE",
"-363 509 CURVE SMOOTH",
"-362 511 OFFCURVE",
"-360 512 OFFCURVE",
"-358 513 CURVE SMOOTH",
"-354 515 OFFCURVE",
"-347 515 OFFCURVE",
"-344 511 CURVE SMOOTH",
"-333 496 OFFCURVE",
"-335 484 OFFCURVE",
"-334 345 CURVE SMOOTH",
"-334 305 OFFCURVE",
"-334 302 OFFCURVE",
"-339 297 CURVE SMOOTH",
"-343 293 OFFCURVE",
"-352 288 OFFCURVE",
"-356 288 CURVE SMOOTH",
"-365 288 OFFCURVE"
);
}
);
width = 0;
}
);
unicode = 007C;
},
{
glyphname = asciicircum;
lastChange = "2019-03-07 00:26:12 +0000";
layers = (
{
layerId = "47BBACC6-E520-4FE6-B315-B44B96E25748";
paths = (
{
closed = 1;
nodes = (
"-484 57 OFFCURVE",
"-486 66 OFFCURVE",
"-479 87 CURVE",
"-470 117 OFFCURVE",
"-443 160 OFFCURVE",
"-399 213 CURVE",
"-383 232 LINE",
"-399 233 LINE",
"-480 240 OFFCURVE",
"-515 248 OFFCURVE",
"-523 262 CURVE",
"-525 266 OFFCURVE",
"-525 267 OFFCURVE",
"-522 270 CURVE",
"-519 274 OFFCURVE",
"-506 279 OFFCURVE",
"-490 284 CURVE",
"-481 286 OFFCURVE",
"-479 288 OFFCURVE",
"-472 297 CURVE",
"-464 308 OFFCURVE",
"-451 317 OFFCURVE",
"-445 317 CURVE",
"-442 317 OFFCURVE",
"-439 315 OFFCURVE",
"-436 309 CURVE",
"-434 305 OFFCURVE",
"-430 300 OFFCURVE",
"-426 298 CURVE",
"-415 290 OFFCURVE",
"-388 288 OFFCURVE",
"-364 293 CURVE",
"-335 299 OFFCURVE",
"-267 301 OFFCURVE",
"-246 296 CURVE",
"-236 294 OFFCURVE",
"-232 292 OFFCURVE",
"-226 286 CURVE",
"-217 276 OFFCURVE",
"-216 270 OFFCURVE",
"-223 256 CURVE",
"-230 242 OFFCURVE",
"-265 208 OFFCURVE",
"-296 184 CURVE",
"-333 156 OFFCURVE",
"-378 112 OFFCURVE",
"-378 104 CURVE",
"-378 103 OFFCURVE",
"-372 105 OFFCURVE",
"-366 108 CURVE",
"-340 120 OFFCURVE",
"-312 123 OFFCURVE",
"-289 117 CURVE",
"-267 112 OFFCURVE",
"-244 95 OFFCURVE",
"-224 73 CURVE",
"-214 62 OFFCURVE",
"-199 41 OFFCURVE",
"-199 39 CURVE",
"-199 38 OFFCURVE",
"-203 36 OFFCURVE",
"-208 33 CURVE",
"-219 28 OFFCURVE",
"-227 28 OFFCURVE",
"-269 31 CURVE",
"-297 33 LINE",
"-314 42 LINE",
"-354 64 OFFCURVE",
"-357 64 OFFCURVE",
"-415 44 CURVE",
"-439 36 OFFCURVE",
"-460 29 OFFCURVE",
"-461 29 CURVE",
"-462 29 OFFCURVE",
"-466 33 OFFCURVE",
"-470 37 CURVE"
);
}
);
width = 0;
}
);
unicode = 005E;
},
{
export = 0;
glyphname = _part.two_beats;
lastChange = "2019-04-16 17:18:10 +0000";
layers = (
{
components = (
{
name = _part.diple;
transform = "{0.6768, 0, 0, 0.6768, 432, -146}";
}
);
layerId = "47BBACC6-E520-4FE6-B315-B44B96E25748";
paths = (
{
closed = 1;
nodes = (
"737 -40 OFFCURVE",
"718 -34 OFFCURVE",
"704 -31 CURVE SMOOTH",
"677 -24 OFFCURVE",
"649 -20 OFFCURVE",
"607 -18 CURVE SMOOTH",
"580 -16 OFFCURVE",
"441 -18 OFFCURVE",
"366 -19 CURVE SMOOTH",
"311 -21 OFFCURVE",
"265 -18 OFFCURVE",
"218 -9 CURVE SMOOTH",
"148 4 OFFCURVE",
"105 28 OFFCURVE",
"100 59 CURVE SMOOTH",
"98 73 OFFCURVE",
"107 81 OFFCURVE",
"116 75 CURVE SMOOTH",
"133 66 OFFCURVE",
"176 59 OFFCURVE",
"220 52 CURVE SMOOTH",
"250 49 OFFCURVE",
"348 50 OFFCURVE",
"455 52 CURVE SMOOTH",
"556 56 OFFCURVE",
"583 55 OFFCURVE",
"603 52 CURVE SMOOTH",
"658 44 OFFCURVE",
"704 22 OFFCURVE",
"745 -12 CURVE SMOOTH",
"760 -25 OFFCURVE",
"756 -53 OFFCURVE",
"742 -44 CURVE SMOOTH"
);
}
);
width = 855;
}
);
},
{
export = 0;
glyphname = _part.apostrophoi;
lastChange = "2019-04-16 17:17:57 +0000";
layers = (
{
layerId = "47BBACC6-E520-4FE6-B315-B44B96E25748";
paths = (
{
closed = 1;
nodes = (
"155 377 OFFCURVE",
"159 389 OFFCURVE",
"183 393 CURVE SMOOTH",
"196 395 OFFCURVE",
"207 403 OFFCURVE",
"207 413 CURVE SMOOTH",
"207 429 OFFCURVE",
"190 438 OFFCURVE",
"138 446 CURVE SMOOTH",
"97 452 OFFCURVE",
"86 472 OFFCURVE",
"123 472 CURVE SMOOTH",
"158 472 OFFCURVE",
"232 454 OFFCURVE",
"254 440 CURVE SMOOTH",
"275 426 OFFCURVE",
"279 399 OFFCURVE",
"262 383 CURVE SMOOTH",
"250 373 OFFCURVE",
"196 366 OFFCURVE",
"174 372 CURVE SMOOTH"
);
},
{
closed = 1;
nodes = (
"332 377 OFFCURVE",
"336 389 OFFCURVE",
"360 393 CURVE SMOOTH",
"373 395 OFFCURVE",
"384 403 OFFCURVE",
"384 413 CURVE SMOOTH",
"384 429 OFFCURVE",
"367 438 OFFCURVE",
"315 446 CURVE SMOOTH",
"274 452 OFFCURVE",
"263 472 OFFCURVE",
"300 472 CURVE SMOOTH",
"335 472 OFFCURVE",
"409 454 OFFCURVE",
"431 440 CURVE SMOOTH",
"452 426 OFFCURVE",
"456 399 OFFCURVE",
"439 383 CURVE SMOOTH",
"427 373 OFFCURVE",
"373 366 OFFCURVE",
"351 372 CURVE SMOOTH"
);
}
);
width = 550;
}
);
},
{
export = 0;
glyphname = _part.hypsele;
lastChange = "2019-04-16 17:18:00 +0000";
layers = (
{
layerId = "47BBACC6-E520-4FE6-B315-B44B96E25748";
paths = (
{
closed = 1;
nodes = (
"113 363 LINE",
"140 368 LINE SMOOTH",
"155 370 OFFCURVE",
"180 380 OFFCURVE",
"198 390 CURVE SMOOTH",
"244 417 OFFCURVE",
"260 452 OFFCURVE",
"268 537 CURVE SMOOTH",
"274 610 OFFCURVE",
"288 647 OFFCURVE",
"315 660 CURVE SMOOTH",
"336 671 OFFCURVE",
"350 671 OFFCURVE",
"366 660 CURVE SMOOTH",
"381 649 OFFCURVE",
"384 620 OFFCURVE",
"371 612 CURVE SMOOTH",
"352 601 OFFCURVE",
"345 577 OFFCURVE",
"342 517 CURVE SMOOTH",
"340 483 OFFCURVE",
"336 447 OFFCURVE",
"332 438 CURVE SMOOTH",
"317 401 OFFCURVE",
"265 361 OFFCURVE",
"215 350 CURVE SMOOTH",
"195 346 LINE",
"221 338 LINE SMOOTH",
"252 329 OFFCURVE",
"293 306 OFFCURVE",
"293 298 CURVE SMOOTH",
"295 286 OFFCURVE",
"268 289 OFFCURVE",
"227 309 CURVE SMOOTH"
);
}
);
width = 492;
}
);
},
{
export = 0;
glyphname = _part.jump_two;
lastChange = "2019-04-16 17:18:03 +0000";
layers = (
{
layerId = "47BBACC6-E520-4FE6-B315-B44B96E25748";
paths = (
{
closed = 1;
nodes = (
"803 -46 OFFCURVE",
"781 -39 OFFCURVE",
"766 -36 CURVE SMOOTH",
"736 -28 OFFCURVE",
"706 -24 OFFCURVE",
"659 -21 CURVE SMOOTH",
"629 -19 OFFCURVE",
"476 -21 OFFCURVE",
"393 -23 CURVE SMOOTH",
"333 -25 OFFCURVE",
"282 -21 OFFCURVE",
"230 -12 CURVE SMOOTH",
"153 3 OFFCURVE",
"106 29 OFFCURVE",
"100 63 CURVE SMOOTH",
"98 79 OFFCURVE",
"108 88 OFFCURVE",
"118 81 CURVE SMOOTH",
"137 71 OFFCURVE",
"184 63 OFFCURVE",
"232 56 CURVE SMOOTH",
"266 52 OFFCURVE",
"374 53 OFFCURVE",
"492 56 CURVE SMOOTH",
"603 60 OFFCURVE",
"633 59 OFFCURVE",
"655 56 CURVE SMOOTH",
"715 47 OFFCURVE",
"766 23 OFFCURVE",
"811 -15 CURVE SMOOTH",
"828 -29 OFFCURVE",
"823 -60 OFFCURVE",
"808 -50 CURVE SMOOTH"
);
},
{
closed = 1;
nodes = (
"677 -178 OFFCURVE",
"668 -164 OFFCURVE",
"658 -133 CURVE SMOOTH",
"645 -90 OFFCURVE",
"642 -83 OFFCURVE",
"632 -80 CURVE SMOOTH",
"626 -78 OFFCURVE",
"622 -74 OFFCURVE",
"623 -71 CURVE SMOOTH",
"625 -63 OFFCURVE",
"649 -61 OFFCURVE",
"675 -64 CURVE SMOOTH",
"705 -68 OFFCURVE",
"713 -77 OFFCURVE",
"725 -118 CURVE SMOOTH",
"738 -160 OFFCURVE",
"742 -166 OFFCURVE",
"750 -169 CURVE SMOOTH",
"758 -172 OFFCURVE",
"760 -180 OFFCURVE",
"751 -185 CURVE SMOOTH",
"743 -188 OFFCURVE",
"710 -187 OFFCURVE",
"695 -183 CURVE SMOOTH"
);
},
{
closed = 1;
nodes = (
"563 -178 OFFCURVE",
"553 -164 OFFCURVE",
"544 -133 CURVE SMOOTH",
"531 -90 OFFCURVE",
"527 -84 OFFCURVE",
"517 -80 CURVE SMOOTH",
"511 -77 OFFCURVE",
"507 -74 OFFCURVE",
"509 -71 CURVE SMOOTH",
"512 -63 OFFCURVE",
"534 -61 OFFCURVE",
"560 -64 CURVE SMOOTH",
"590 -68 OFFCURVE",
"599 -77 OFFCURVE",
"611 -118 CURVE SMOOTH",
"624 -160 OFFCURVE",
"627 -166 OFFCURVE",
"635 -169 CURVE SMOOTH",
"644 -172 OFFCURVE",
"645 -180 OFFCURVE",
"636 -185 CURVE SMOOTH",
"628 -188 OFFCURVE",
"596 -187 OFFCURVE",
"581 -183 CURVE SMOOTH"
);
}
);
width = 922;
}
);
},
{
export = 0;
glyphname = _part.jump_two_long;
lastChange = "2019-04-16 17:18:06 +0000";
layers = (
{
layerId = "47BBACC6-E520-4FE6-B315-B44B96E25748";
paths = (
{
closed = 1;
nodes = (
"1018 -8 OFFCURVE",
"993 -1 OFFCURVE",
"977 2 CURVE SMOOTH",
"944 8 OFFCURVE",
"911 12 OFFCURVE",
"859 15 CURVE SMOOTH",
"826 16 OFFCURVE",
"560 16 OFFCURVE",
"468 13 CURVE SMOOTH",
"403 12 OFFCURVE",
"346 16 OFFCURVE",
"290 23 CURVE SMOOTH",
"204 35 OFFCURVE",
"153 59 OFFCURVE",
"146 89 CURVE SMOOTH",
"143 102 OFFCURVE",
"155 110 OFFCURVE",
"165 105 CURVE SMOOTH",
"186 95 OFFCURVE",
"238 89 OFFCURVE",
"292 83 CURVE SMOOTH",
"329 79 OFFCURVE",
"448 80 OFFCURVE",
"578 83 CURVE SMOOTH",
"701 85 OFFCURVE",
"830 86 OFFCURVE",
"855 83 CURVE SMOOTH",
"921 75 OFFCURVE",
"977 54 OFFCURVE",
"1026 21 CURVE SMOOTH",
"1045 8 OFFCURVE",
"1039 -20 OFFCURVE",
"1023 -10 CURVE SMOOTH"
);
},
{
closed = 1;
nodes = (
"941 -148 OFFCURVE",
"932 -134 OFFCURVE",
"922 -103 CURVE SMOOTH",
"908 -60 OFFCURVE",
"906 -53 OFFCURVE",
"896 -50 CURVE SMOOTH",
"890 -48 OFFCURVE",
"886 -44 OFFCURVE",
"887 -41 CURVE SMOOTH",
"890 -33 OFFCURVE",
"913 -31 OFFCURVE",
"939 -34 CURVE SMOOTH",
"969 -37 OFFCURVE",
"977 -47 OFFCURVE",
"989 -88 CURVE SMOOTH",
"1001 -130 OFFCURVE",
"1006 -136 OFFCURVE",
"1014 -139 CURVE SMOOTH",
"1022 -142 OFFCURVE",
"1024 -150 OFFCURVE",
"1015 -155 CURVE SMOOTH",
"1008 -159 OFFCURVE",
"974 -157 OFFCURVE",
"959 -153 CURVE SMOOTH"
);
},
{
closed = 1;
nodes = (
"827 -148 OFFCURVE",
"817 -134 OFFCURVE",
"808 -103 CURVE SMOOTH",
"795 -60 OFFCURVE",
"791 -53 OFFCURVE",
"781 -50 CURVE SMOOTH",
"775 -48 OFFCURVE",
"771 -44 OFFCURVE",
"773 -41 CURVE SMOOTH",
"778 -34 OFFCURVE",
"798 -31 OFFCURVE",
"824 -34 CURVE SMOOTH",
"854 -37 OFFCURVE",
"863 -47 OFFCURVE",
"875 -88 CURVE SMOOTH",
"887 -130 OFFCURVE",
"891 -136 OFFCURVE",
"899 -139 CURVE SMOOTH",
"908 -142 OFFCURVE",
"909 -150 OFFCURVE",
"900 -155 CURVE SMOOTH",
"893 -159 OFFCURVE",
"860 -157 OFFCURVE",
"845 -153 CURVE SMOOTH"
);
}
);
width = 1184;
}
);
},
{
export = 0;
glyphname = _part.diple;
lastChange = "2019-04-16 17:18:10 +0000";
layers = (
{
layerId = "47BBACC6-E520-4FE6-B315-B44B96E25748";
paths = (
{
closed = 1;
nodes = (
"1 49 OFFCURVE",
"8 56 OFFCURVE",
"16 59 CURVE",
"25 62 OFFCURVE",
"36 78 OFFCURVE",
"42 95 CURVE SMOOTH",
"53 125 OFFCURVE",
"54 125 OFFCURVE",
"119 125 CURVE SMOOTH",
"170 125 OFFCURVE",
"182 122 OFFCURVE",
"168 114 CURVE SMOOTH",
"159 109 OFFCURVE",
"144 88 OFFCURVE",
"136 69 CURVE SMOOTH",
"122 36 OFFCURVE",
"121 35 OFFCURVE",
"62 35 CURVE SMOOTH",
"28 35 OFFCURVE",
"1 39 OFFCURVE",
"1 44 CURVE SMOOTH"
);
},
{
closed = 1;
nodes = (
"181 49 OFFCURVE",
"188 56 OFFCURVE",
"196 59 CURVE",
"205 62 OFFCURVE",
"216 78 OFFCURVE",
"222 95 CURVE SMOOTH",
"233 125 OFFCURVE",
"234 125 OFFCURVE",
"299 125 CURVE SMOOTH",
"350 125 OFFCURVE",
"362 122 OFFCURVE",
"348 114 CURVE SMOOTH",
"339 109 OFFCURVE",
"324 88 OFFCURVE",
"316 69 CURVE SMOOTH",
"302 36 OFFCURVE",
"301 35 OFFCURVE",
"242 35 CURVE SMOOTH",
"208 35 OFFCURVE",
"181 39 OFFCURVE",
"181 44 CURVE SMOOTH"
);
}
